  0
SECTION
  2
HEADER
  9
$ANGBASE
  50
0.0
  9
$ANGDIR
  70
1
  9
$MEASUREMENT
  70
1
  0
ENDSEC
  0
SECTION
  2
TABLES
  0
TABLE
  2
LTYPE
  70
4
  0
LTYPE
  5
40F
  2
CONTINUOUS
  70
0
  3
Solid line
  72
65
  73
0
  40
0.0
  0
LTYPE
  5
410
  2
DASHDOT
 70
0
  3
Dash Dot ____ _ ____ _
 72
65
 73
4
 40
2.0
 49
1.25
 49
-0.25
 49
0.25
 49
-0.25
  0
LTYPE
  5
411
  2
DASHED
 70
0
  3
Dashed __ __ __ __ __
 72
65
 73
2
 40
0.75
 49
0.5
 49
-0.25
  0
LTYPE
  5
43B
  2
DOTTED
 70
0
  3
Dotted .  .  .  .
 72
65
 73
2
 40
0.2
 49
0.0
 49
-0.2
  0
ENDTAB
  0
TABLE
  2
STYLE
  70
4
  0
STYLE
  2
KICAD
  70
0
  40
0
  41
1
  42
1
  50
0
  71
0
  3
isocp.shx
  0
STYLE
  2
KICADB
  70
0
  40
0
  41
1
  42
1
  50
0
  71
0
  3
isocp.shx
  0
STYLE
  2
KICADI
  70
0
  40
0
  41
1
  42
1
  50
15
  71
0
  3
isocp.shx
  0
STYLE
  2
KICADBI
  70
0
  40
0
  41
1
  42
1
  50
15
  71
0
  3
isocp.shx
  0
ENDTAB
  0
TABLE
  2
LAYER
  70
1
  0
LAYER
  2
BLACK
  70
0
  62
7
  6
CONTINUOUS
  0
ENDTAB
  0
ENDSEC
  0
SECTION
  2
ENTITIES
0
LINE
8
BLACK
6
CONTINUOUS
10
-69
20
22.565
11
-68.954
21
22.546
0
LINE
8
BLACK
6
CONTINUOUS
10
-68.954
20
22.546
11
-67.954
21
21.546
0
LINE
8
BLACK
6
CONTINUOUS
10
-67.954
20
21.546
11
-67.954
21
21.546
0
LINE
8
BLACK
6
CONTINUOUS
10
-67.954
20
21.546
11
-67.935
21
21.5
0
LINE
8
BLACK
6
CONTINUOUS
10
-67.935
20
21.5
11
-67.935
21
7.5
0
LINE
8
BLACK
6
CONTINUOUS
10
-67.935
20
7.5
11
-67.954
21
7.45404
0
LINE
8
BLACK
6
CONTINUOUS
10
-67.954
20
7.45404
11
-68.954
21
6.45404
0
LINE
8
BLACK
6
CONTINUOUS
10
-68.954
20
6.45404
11
-69
21
6.435
0
LINE
8
BLACK
6
CONTINUOUS
10
-69
20
6.435
11
-76
21
6.435
0
LINE
8
BLACK
6
CONTINUOUS
10
-76
20
6.435
11
-76.046
21
6.45404
0
LINE
8
BLACK
6
CONTINUOUS
10
-76.046
20
6.45404
11
-76.046
21
6.45404
0
LINE
8
BLACK
6
CONTINUOUS
10
-76.046
20
6.45404
11
-77.046
21
7.45404
0
LINE
8
BLACK
6
CONTINUOUS
10
-77.046
20
7.45404
11
-77.065
21
7.5
0
LINE
8
BLACK
6
CONTINUOUS
10
-77.065
20
7.5
11
-77.065
21
21.5
0
LINE
8
BLACK
6
CONTINUOUS
10
-77.065
20
21.5
11
-77.046
21
21.546
0
LINE
8
BLACK
6
CONTINUOUS
10
-77.046
20
21.546
11
-77.046
21
21.546
0
LINE
8
BLACK
6
CONTINUOUS
10
-77.046
20
21.546
11
-76.046
21
22.546
0
LINE
8
BLACK
6
CONTINUOUS
10
-76.046
20
22.546
11
-76
21
22.565
0
LINE
8
BLACK
6
CONTINUOUS
10
-76
20
22.565
11
-69
21
22.565
0
LINE
8
BLACK
6
CONTINUOUS
10
-75.9731
20
22.435
11
-76.935
21
21.4731
0
LINE
8
BLACK
6
CONTINUOUS
10
-76.935
20
21.4731
11
-76.935
21
7.52692
0
LINE
8
BLACK
6
CONTINUOUS
10
-76.935
20
7.52692
11
-75.9731
21
6.565
0
LINE
8
BLACK
6
CONTINUOUS
10
-75.9731
20
6.565
11
-69.0269
21
6.565
0
LINE
8
BLACK
6
CONTINUOUS
10
-69.0269
20
6.565
11
-68.065
21
7.52692
0
LINE
8
BLACK
6
CONTINUOUS
10
-68.065
20
7.52692
11
-68.065
21
21.4731
0
LINE
8
BLACK
6
CONTINUOUS
10
-68.065
20
21.4731
11
-69.0269
21
22.435
0
LINE
8
BLACK
6
CONTINUOUS
10
-69.0269
20
22.435
11
-75.9731
21
22.435
0
LINE
8
BLACK
6
CONTINUOUS
10
76
20
22.565
11
76.046
21
22.546
0
LINE
8
BLACK
6
CONTINUOUS
10
76.046
20
22.546
11
77.046
21
21.546
0
LINE
8
BLACK
6
CONTINUOUS
10
77.046
20
21.546
11
77.046
21
21.546
0
LINE
8
BLACK
6
CONTINUOUS
10
77.046
20
21.546
11
77.065
21
21.5
0
LINE
8
BLACK
6
CONTINUOUS
10
77.065
20
21.5
11
77.065
21
7.5
0
LINE
8
BLACK
6
CONTINUOUS
10
77.065
20
7.5
11
77.065
21
7.5
0
LINE
8
BLACK
6
CONTINUOUS
10
77.065
20
7.5
11
77.046
21
7.45404
0
LINE
8
BLACK
6
CONTINUOUS
10
77.046
20
7.45404
11
76.046
21
6.45404
0
LINE
8
BLACK
6
CONTINUOUS
10
76.046
20
6.45404
11
76
21
6.435
0
LINE
8
BLACK
6
CONTINUOUS
10
76
20
6.435
11
69
21
6.435
0
LINE
8
BLACK
6
CONTINUOUS
10
69
20
6.435
11
68.954
21
6.45404
0
LINE
8
BLACK
6
CONTINUOUS
10
68.954
20
6.45404
11
68.954
21
6.45404
0
LINE
8
BLACK
6
CONTINUOUS
10
68.954
20
6.45404
11
67.954
21
7.45404
0
LINE
8
BLACK
6
CONTINUOUS
10
67.954
20
7.45404
11
67.935
21
7.5
0
LINE
8
BLACK
6
CONTINUOUS
10
67.935
20
7.5
11
67.935
21
21.5
0
LINE
8
BLACK
6
CONTINUOUS
10
67.935
20
21.5
11
67.954
21
21.546
0
LINE
8
BLACK
6
CONTINUOUS
10
67.954
20
21.546
11
67.954
21
21.546
0
LINE
8
BLACK
6
CONTINUOUS
10
67.954
20
21.546
11
68.954
21
22.546
0
LINE
8
BLACK
6
CONTINUOUS
10
68.954
20
22.546
11
69
21
22.565
0
LINE
8
BLACK
6
CONTINUOUS
10
69
20
22.565
11
76
21
22.565
0
LINE
8
BLACK
6
CONTINUOUS
10
69.0269
20
22.435
11
68.065
21
21.4731
0
LINE
8
BLACK
6
CONTINUOUS
10
68.065
20
21.4731
11
68.065
21
7.52692
0
LINE
8
BLACK
6
CONTINUOUS
10
68.065
20
7.52692
11
69.0269
21
6.565
0
LINE
8
BLACK
6
CONTINUOUS
10
69.0269
20
6.565
11
75.9731
21
6.565
0
LINE
8
BLACK
6
CONTINUOUS
10
75.9731
20
6.565
11
76.935
21
7.52692
0
LINE
8
BLACK
6
CONTINUOUS
10
76.935
20
7.52692
11
76.935
21
21.4731
0
LINE
8
BLACK
6
CONTINUOUS
10
76.935
20
21.4731
11
75.9731
21
22.435
0
LINE
8
BLACK
6
CONTINUOUS
10
75.9731
20
22.435
11
69.0269
21
22.435
0
LINE
8
BLACK
6
CONTINUOUS
10
5.5
20
152.025
11
5.51768
21
152.018
0
LINE
8
BLACK
6
CONTINUOUS
10
5.51768
20
152.018
11
7.51768
21
150.018
0
LINE
8
BLACK
6
CONTINUOUS
10
7.51768
20
150.018
11
7.525
21
150
0
LINE
8
BLACK
6
CONTINUOUS
10
7.525
20
150
11
7.525
21
142
0
LINE
8
BLACK
6
CONTINUOUS
10
7.525
20
142
11
7.51768
21
141.982
0
LINE
8
BLACK
6
CONTINUOUS
10
7.51768
20
141.982
11
5.51768
21
139.982
0
LINE
8
BLACK
6
CONTINUOUS
10
5.51768
20
139.982
11
5.5
21
139.975
0
LINE
8
BLACK
6
CONTINUOUS
10
5.5
20
139.975
11
-5.5
21
139.975
0
LINE
8
BLACK
6
CONTINUOUS
10
-5.5
20
139.975
11
-5.51768
21
139.982
0
LINE
8
BLACK
6
CONTINUOUS
10
-5.51768
20
139.982
11
-7.51768
21
141.982
0
LINE
8
BLACK
6
CONTINUOUS
10
-7.51768
20
141.982
11
-7.525
21
142
0
LINE
8
BLACK
6
CONTINUOUS
10
-7.525
20
142
11
-7.525
21
150
0
LINE
8
BLACK
6
CONTINUOUS
10
-7.525
20
150
11
-7.51768
21
150.018
0
LINE
8
BLACK
6
CONTINUOUS
10
-7.51768
20
150.018
11
-5.51768
21
152.018
0
LINE
8
BLACK
6
CONTINUOUS
10
-5.51768
20
152.018
11
-5.5
21
152.025
0
LINE
8
BLACK
6
CONTINUOUS
10
-5.5
20
152.025
11
5.5
21
152.025
0
LINE
8
BLACK
6
CONTINUOUS
10
-5.48964
20
151.975
11
-7.475
21
149.99
0
LINE
8
BLACK
6
CONTINUOUS
10
-7.475
20
149.99
11
-7.475
21
142.01
0
LINE
8
BLACK
6
CONTINUOUS
10
-7.475
20
142.01
11
-5.48964
21
140.025
0
LINE
8
BLACK
6
CONTINUOUS
10
-5.48964
20
140.025
11
5.48964
21
140.025
0
LINE
8
BLACK
6
CONTINUOUS
10
5.48964
20
140.025
11
7.475
21
142.01
0
LINE
8
BLACK
6
CONTINUOUS
10
7.475
20
142.01
11
7.475
21
149.99
0
LINE
8
BLACK
6
CONTINUOUS
10
7.475
20
149.99
11
5.48964
21
151.975
0
LINE
8
BLACK
6
CONTINUOUS
10
5.48964
20
151.975
11
-5.48964
21
151.975
0
LINE
8
BLACK
6
CONTINUOUS
10
19.1445
20
199.524
11
19.1462
21
199.524
0
LINE
8
BLACK
6
CONTINUOUS
10
19.1462
20
199.524
11
22.0936
21
199.384
0
LINE
8
BLACK
6
CONTINUOUS
10
22.0936
20
199.384
11
22.0953
21
199.384
0
LINE
8
BLACK
6
CONTINUOUS
10
22.0953
20
199.384
11
22.0972
21
199.384
0
LINE
8
BLACK
6
CONTINUOUS
10
22.0972
20
199.384
11
24.9751
21
199.088
0
LINE
8
BLACK
6
CONTINUOUS
10
24.9751
20
199.088
11
24.9764
21
199.087
0
LINE
8
BLACK
6
CONTINUOUS
10
24.9764
20
199.087
11
24.9779
21
199.087
0
LINE
8
BLACK
6
CONTINUOUS
10
24.9779
20
199.087
11
27.7632
21
198.675
0
LINE
8
BLACK
6
CONTINUOUS
10
27.7632
20
198.675
11
27.7642
21
198.675
0
LINE
8
BLACK
6
CONTINUOUS
10
27.7642
20
198.675
11
27.7653
21
198.675
0
LINE
8
BLACK
6
CONTINUOUS
10
27.7653
20
198.675
11
30.4346
21
198.189
0
LINE
8
BLACK
6
CONTINUOUS
10
30.4346
20
198.189
11
30.4356
21
198.189
0
LINE
8
BLACK
6
CONTINUOUS
10
30.4356
20
198.189
11
30.4368
21
198.189
0
LINE
8
BLACK
6
CONTINUOUS
10
30.4368
20
198.189
11
32.9902
21
197.63
0
LINE
8
BLACK
6
CONTINUOUS
10
32.9902
20
197.63
11
32.9913
21
197.629
0
LINE
8
BLACK
6
CONTINUOUS
10
32.9913
20
197.629
11
32.9926
21
197.63
0
LINE
8
BLACK
6
CONTINUOUS
10
32.9926
20
197.63
11
35.43
21
196.997
0
LINE
8
BLACK
6
CONTINUOUS
10
35.43
20
196.997
11
35.4311
21
196.996
0
LINE
8
BLACK
6
CONTINUOUS
10
35.4311
20
196.996
11
35.4325
21
196.997
0
LINE
8
BLACK
6
CONTINUOUS
10
35.4325
20
196.997
11
37.754
21
196.291
0
LINE
8
BLACK
6
CONTINUOUS
10
37.754
20
196.291
11
37.7552
21
196.29
0
LINE
8
BLACK
6
CONTINUOUS
10
37.7552
20
196.29
11
37.7567
21
196.29
0
LINE
8
BLACK
6
CONTINUOUS
10
37.7567
20
196.29
11
39.9622
21
195.511
0
LINE
8
BLACK
6
CONTINUOUS
10
39.9622
20
195.511
11
39.9635
21
195.509
0
LINE
8
BLACK
6
CONTINUOUS
10
39.9635
20
195.509
11
39.9651
21
195.509
0
LINE
8
BLACK
6
CONTINUOUS
10
39.9651
20
195.509
11
42.0547
21
194.657
0
LINE
8
BLACK
6
CONTINUOUS
10
42.0547
20
194.657
11
42.056
21
194.656
0
LINE
8
BLACK
6
CONTINUOUS
10
42.056
20
194.656
11
42.0577
21
194.655
0
LINE
8
BLACK
6
CONTINUOUS
10
42.0577
20
194.655
11
44.0313
21
193.729
0
LINE
8
BLACK
6
CONTINUOUS
10
44.0313
20
193.729
11
44.0326
21
193.728
0
LINE
8
BLACK
6
CONTINUOUS
10
44.0326
20
193.728
11
44.0343
21
193.728
0
LINE
8
BLACK
6
CONTINUOUS
10
44.0343
20
193.728
11
45.9128
21
192.725
0
LINE
8
BLACK
6
CONTINUOUS
10
45.9128
20
192.725
11
45.9139
21
192.724
0
LINE
8
BLACK
6
CONTINUOUS
10
45.9139
20
192.724
11
45.9157
21
192.723
0
LINE
8
BLACK
6
CONTINUOUS
10
45.9157
20
192.723
11
47.7199
21
191.641
0
LINE
8
BLACK
6
CONTINUOUS
10
47.7199
20
191.641
11
47.7209
21
191.639
0
LINE
8
BLACK
6
CONTINUOUS
10
47.7209
20
191.639
11
47.7227
21
191.639
0
LINE
8
BLACK
6
CONTINUOUS
10
47.7227
20
191.639
11
49.4526
21
190.477
0
LINE
8
BLACK
6
CONTINUOUS
10
49.4526
20
190.477
11
49.4536
21
190.475
0
LINE
8
BLACK
6
CONTINUOUS
10
49.4536
20
190.475
11
49.4553
21
190.475
0
LINE
8
BLACK
6
CONTINUOUS
10
49.4553
20
190.475
11
51.1109
21
189.232
0
LINE
8
BLACK
6
CONTINUOUS
10
51.1109
20
189.232
11
51.1119
21
189.231
0
LINE
8
BLACK
6
CONTINUOUS
10
51.1119
20
189.231
11
51.1136
21
189.23
0
LINE
8
BLACK
6
CONTINUOUS
10
51.1136
20
189.23
11
52.6949
21
187.908
0
LINE
8
BLACK
6
CONTINUOUS
10
52.6949
20
187.908
11
52.6958
21
187.907
0
LINE
8
BLACK
6
CONTINUOUS
10
52.6958
20
187.907
11
52.6975
21
187.906
0
LINE
8
BLACK
6
CONTINUOUS
10
52.6975
20
187.906
11
54.2045
21
186.504
0
LINE
8
BLACK
6
CONTINUOUS
10
54.2045
20
186.504
11
54.2053
21
186.502
0
LINE
8
BLACK
6
CONTINUOUS
10
54.2053
20
186.502
11
54.207
21
186.502
0
LINE
8
BLACK
6
CONTINUOUS
10
54.207
20
186.502
11
55.6397
21
185.02
0
LINE
8
BLACK
6
CONTINUOUS
10
55.6397
20
185.02
11
55.6404
21
185.018
0
LINE
8
BLACK
6
CONTINUOUS
10
55.6404
20
185.018
11
55.642
21
185.017
0
LINE
8
BLACK
6
CONTINUOUS
10
55.642
20
185.017
11
57.0005
21
183.456
0
LINE
8
BLACK
6
CONTINUOUS
10
57.0005
20
183.456
11
57.0014
21
183.453
0
LINE
8
BLACK
6
CONTINUOUS
10
57.0014
20
183.453
11
57.0038
21
183.452
0
LINE
8
BLACK
6
CONTINUOUS
10
57.0038
20
183.452
11
58.2332
21
181.783
0
LINE
8
BLACK
6
CONTINUOUS
10
58.2332
20
181.783
11
58.2342
21
181.779
0
LINE
8
BLACK
6
CONTINUOUS
10
58.2342
20
181.779
11
58.2372
21
181.777
0
LINE
8
BLACK
6
CONTINUOUS
10
58.2372
20
181.777
11
59.283
21
179.972
0
LINE
8
BLACK
6
CONTINUOUS
10
59.283
20
179.972
11
59.2835
21
179.968
0
LINE
8
BLACK
6
CONTINUOUS
10
59.2835
20
179.968
11
59.2862
21
179.966
0
LINE
8
BLACK
6
CONTINUOUS
10
59.2862
20
179.966
11
60.1484
21
178.025
0
LINE
8
BLACK
6
CONTINUOUS
10
60.1484
20
178.025
11
60.1485
21
178.021
0
LINE
8
BLACK
6
CONTINUOUS
10
60.1485
20
178.021
11
60.1508
21
178.019
0
LINE
8
BLACK
6
CONTINUOUS
10
60.1508
20
178.019
11
60.8293
21
175.942
0
LINE
8
BLACK
6
CONTINUOUS
10
60.8293
20
175.942
11
60.8291
21
175.939
0
LINE
8
BLACK
6
CONTINUOUS
10
60.8291
20
175.939
11
60.831
21
175.936
0
LINE
8
BLACK
6
CONTINUOUS
10
60.831
20
175.936
11
61.3259
21
173.724
0
LINE
8
BLACK
6
CONTINUOUS
10
61.3259
20
173.724
11
61.3254
21
173.721
0
LINE
8
BLACK
6
CONTINUOUS
10
61.3254
20
173.721
11
61.327
21
173.718
0
LINE
8
BLACK
6
CONTINUOUS
10
61.327
20
173.718
11
61.6383
21
171.371
0
LINE
8
BLACK
6
CONTINUOUS
10
61.6383
20
171.371
11
61.6376
21
171.368
0
LINE
8
BLACK
6
CONTINUOUS
10
61.6376
20
171.368
11
61.6388
21
171.365
0
LINE
8
BLACK
6
CONTINUOUS
10
61.6388
20
171.365
11
61.7665
21
168.882
0
LINE
8
BLACK
6
CONTINUOUS
10
61.7665
20
168.882
11
61.7656
21
168.879
0
LINE
8
BLACK
6
CONTINUOUS
10
61.7656
20
168.879
11
61.7665
21
168.877
0
LINE
8
BLACK
6
CONTINUOUS
10
61.7665
20
168.877
11
61.7106
21
166.258
0
LINE
8
BLACK
6
CONTINUOUS
10
61.7106
20
166.258
11
61.709
21
166.254
0
LINE
8
BLACK
6
CONTINUOUS
10
61.709
20
166.254
11
61.71
21
166.251
0
LINE
8
BLACK
6
CONTINUOUS
10
61.71
20
166.251
11
61.3568
21
163.634
0
LINE
8
BLACK
6
CONTINUOUS
10
61.3568
20
163.634
11
61.3539
21
163.629
0
LINE
8
BLACK
6
CONTINUOUS
10
61.3539
20
163.629
11
61.3545
21
163.624
0
LINE
8
BLACK
6
CONTINUOUS
10
61.3545
20
163.624
11
60.5902
21
161.149
0
LINE
8
BLACK
6
CONTINUOUS
10
60.5902
20
161.149
11
60.5865
21
161.144
0
LINE
8
BLACK
6
CONTINUOUS
10
60.5865
20
161.144
11
60.5861
21
161.139
0
LINE
8
BLACK
6
CONTINUOUS
10
60.5861
20
161.139
11
59.4108
21
158.805
0
LINE
8
BLACK
6
CONTINUOUS
10
59.4108
20
158.805
11
59.4066
21
158.802
0
LINE
8
BLACK
6
CONTINUOUS
10
59.4066
20
158.802
11
59.4054
21
158.797
0
LINE
8
BLACK
6
CONTINUOUS
10
59.4054
20
158.797
11
57.819
21
156.605
0
LINE
8
BLACK
6
CONTINUOUS
10
57.819
20
156.605
11
57.8148
21
156.602
0
LINE
8
BLACK
6
CONTINUOUS
10
57.8148
20
156.602
11
57.8129
21
156.598
0
LINE
8
BLACK
6
CONTINUOUS
10
57.8129
20
156.598
11
55.8155
21
154.547
0
LINE
8
BLACK
6
CONTINUOUS
10
55.8155
20
154.547
11
55.8115
21
154.546
0
LINE
8
BLACK
6
CONTINUOUS
10
55.8115
20
154.546
11
55.8093
21
154.542
0
LINE
8
BLACK
6
CONTINUOUS
10
55.8093
20
154.542
11
53.4009
21
152.633
0
LINE
8
BLACK
6
CONTINUOUS
10
53.4009
20
152.633
11
53.3972
21
152.632
0
LINE
8
BLACK
6
CONTINUOUS
10
53.3972
20
152.632
11
53.395
21
152.629
0
LINE
8
BLACK
6
CONTINUOUS
10
53.395
20
152.629
11
50.5756
21
150.862
0
LINE
8
BLACK
6
CONTINUOUS
10
50.5756
20
150.862
11
50.5724
21
150.861
0
LINE
8
BLACK
6
CONTINUOUS
10
50.5724
20
150.861
11
50.5703
21
150.859
0
LINE
8
BLACK
6
CONTINUOUS
10
50.5703
20
150.859
11
47.5382
21
149.333
0
LINE
8
BLACK
6
CONTINUOUS
10
47.5382
20
149.333
11
51.6783
21
148.905
0
LINE
8
BLACK
6
CONTINUOUS
10
51.6783
20
148.905
11
51.6807
21
148.903
0
LINE
8
BLACK
6
CONTINUOUS
10
51.6807
20
148.903
11
51.6835
21
148.904
0
LINE
8
BLACK
6
CONTINUOUS
10
51.6835
20
148.904
11
55.8292
21
148.133
0
LINE
8
BLACK
6
CONTINUOUS
10
55.8292
20
148.133
11
55.8317
21
148.131
0
LINE
8
BLACK
6
CONTINUOUS
10
55.8317
20
148.131
11
55.8347
21
148.132
0
LINE
8
BLACK
6
CONTINUOUS
10
55.8347
20
148.132
11
59.7651
21
147.041
0
LINE
8
BLACK
6
CONTINUOUS
10
59.7651
20
147.041
11
59.7676
21
147.039
0
LINE
8
BLACK
6
CONTINUOUS
10
59.7676
20
147.039
11
59.7708
21
147.039
0
LINE
8
BLACK
6
CONTINUOUS
10
59.7708
20
147.039
11
63.486
21
145.628
0
LINE
8
BLACK
6
CONTINUOUS
10
63.486
20
145.628
11
63.4884
21
145.626
0
LINE
8
BLACK
6
CONTINUOUS
10
63.4884
20
145.626
11
63.4917
21
145.626
0
LINE
8
BLACK
6
CONTINUOUS
10
63.4917
20
145.626
11
66.9915
21
143.895
0
LINE
8
BLACK
6
CONTINUOUS
10
66.9915
20
143.895
11
66.9938
21
143.893
0
LINE
8
BLACK
6
CONTINUOUS
10
66.9938
20
143.893
11
66.9971
21
143.892
0
LINE
8
BLACK
6
CONTINUOUS
10
66.9971
20
143.892
11
70.2817
21
141.842
0
LINE
8
BLACK
6
CONTINUOUS
10
70.2817
20
141.842
11
70.2837
21
141.839
0
LINE
8
BLACK
6
CONTINUOUS
10
70.2837
20
141.839
11
70.287
21
141.838
0
LINE
8
BLACK
6
CONTINUOUS
10
70.287
20
141.838
11
73.3562
21
139.468
0
LINE
8
BLACK
6
CONTINUOUS
10
73.3562
20
139.468
11
73.3579
21
139.465
0
LINE
8
BLACK
6
CONTINUOUS
10
73.3579
20
139.465
11
73.361
21
139.464
0
LINE
8
BLACK
6
CONTINUOUS
10
73.361
20
139.464
11
76.215
21
136.773
0
LINE
8
BLACK
6
CONTINUOUS
10
76.215
20
136.773
11
76.2162
21
136.771
0
LINE
8
BLACK
6
CONTINUOUS
10
76.2162
20
136.771
11
76.2188
21
136.769
0
LINE
8
BLACK
6
CONTINUOUS
10
76.2188
20
136.769
11
78.8223
21
133.863
0
LINE
8
BLACK
6
CONTINUOUS
10
78.8223
20
133.863
11
78.8232
21
133.861
0
LINE
8
BLACK
6
CONTINUOUS
10
78.8232
20
133.861
11
78.8254
21
133.859
0
LINE
8
BLACK
6
CONTINUOUS
10
78.8254
20
133.859
11
81.1434
21
130.84
0
LINE
8
BLACK
6
CONTINUOUS
10
81.1434
20
130.84
11
81.1441
21
130.838
0
LINE
8
BLACK
6
CONTINUOUS
10
81.1441
20
130.838
11
81.1463
21
130.836
0
LINE
8
BLACK
6
CONTINUOUS
10
81.1463
20
130.836
11
83.1787
21
127.705
0
LINE
8
BLACK
6
CONTINUOUS
10
83.1787
20
127.705
11
83.1792
21
127.702
0
LINE
8
BLACK
6
CONTINUOUS
10
83.1792
20
127.702
11
83.1814
21
127.7
0
LINE
8
BLACK
6
CONTINUOUS
10
83.1814
20
127.7
11
84.9283
21
124.456
0
LINE
8
BLACK
6
CONTINUOUS
10
84.9283
20
124.456
11
84.9286
21
124.453
0
LINE
8
BLACK
6
CONTINUOUS
10
84.9286
20
124.453
11
84.9306
21
124.451
0
LINE
8
BLACK
6
CONTINUOUS
10
84.9306
20
124.451
11
86.3919
21
121.095
0
LINE
8
BLACK
6
CONTINUOUS
10
86.3919
20
121.095
11
86.392
21
121.092
0
LINE
8
BLACK
6
CONTINUOUS
10
86.392
20
121.092
11
86.3939
21
121.09
0
LINE
8
BLACK
6
CONTINUOUS
10
86.3939
20
121.09
11
87.5696
21
117.621
0
LINE
8
BLACK
6
CONTINUOUS
10
87.5696
20
117.621
11
87.5694
21
117.618
0
LINE
8
BLACK
6
CONTINUOUS
10
87.5694
20
117.618
11
87.5711
21
117.616
0
LINE
8
BLACK
6
CONTINUOUS
10
87.5711
20
117.616
11
88.4613
21
114.034
0
LINE
8
BLACK
6
CONTINUOUS
10
88.4613
20
114.034
11
88.4609
21
114.031
0
LINE
8
BLACK
6
CONTINUOUS
10
88.4609
20
114.031
11
88.4624
21
114.029
0
LINE
8
BLACK
6
CONTINUOUS
10
88.4624
20
114.029
11
89.067
21
110.335
0
LINE
8
BLACK
6
CONTINUOUS
10
89.067
20
110.335
11
89.0663
21
110.332
0
LINE
8
BLACK
6
CONTINUOUS
10
89.0663
20
110.332
11
89.0676
21
110.33
0
LINE
8
BLACK
6
CONTINUOUS
10
89.0676
20
110.33
11
89.3675
21
106.593
0
LINE
8
BLACK
6
CONTINUOUS
10
89.3675
20
106.593
11
89.3666
21
106.59
0
LINE
8
BLACK
6
CONTINUOUS
10
89.3666
20
106.59
11
89.3677
21
106.588
0
LINE
8
BLACK
6
CONTINUOUS
10
89.3677
20
106.588
11
89.3436
21
102.879
0
LINE
8
BLACK
6
CONTINUOUS
10
89.3436
20
102.879
11
89.3424
21
102.876
0
LINE
8
BLACK
6
CONTINUOUS
10
89.3424
20
102.876
11
89.3433
21
102.873
0
LINE
8
BLACK
6
CONTINUOUS
10
89.3433
20
102.873
11
88.9952
21
99.192
0
LINE
8
BLACK
6
CONTINUOUS
10
88.9952
20
99.192
11
88.9938
21
99.1893
0
LINE
8
BLACK
6
CONTINUOUS
10
88.9938
20
99.1893
11
88.9944
21
99.1864
0
LINE
8
BLACK
6
CONTINUOUS
10
88.9944
20
99.1864
11
88.3223
21
95.533
0
LINE
8
BLACK
6
CONTINUOUS
10
88.3223
20
95.533
11
88.3207
21
95.5305
0
LINE
8
BLACK
6
CONTINUOUS
10
88.3207
20
95.5305
11
88.3211
21
95.5275
0
LINE
8
BLACK
6
CONTINUOUS
10
88.3211
20
95.5275
11
87.325
21
91.9018
0
LINE
8
BLACK
6
CONTINUOUS
10
87.325
20
91.9018
11
87.3233
21
91.8996
0
LINE
8
BLACK
6
CONTINUOUS
10
87.3233
20
91.8996
11
87.3234
21
91.8967
0
LINE
8
BLACK
6
CONTINUOUS
10
87.3234
20
91.8967
11
86.0033
21
88.2987
0
LINE
8
BLACK
6
CONTINUOUS
10
86.0033
20
88.2987
11
86.0015
21
88.2967
0
LINE
8
BLACK
6
CONTINUOUS
10
86.0015
20
88.2967
11
86.0014
21
88.2939
0
LINE
8
BLACK
6
CONTINUOUS
10
86.0014
20
88.2939
11
84.3574
21
84.7236
0
LINE
8
BLACK
6
CONTINUOUS
10
84.3574
20
84.7236
11
84.3554
21
84.7219
0
LINE
8
BLACK
6
CONTINUOUS
10
84.3554
20
84.7219
11
84.3551
21
84.7193
0
LINE
8
BLACK
6
CONTINUOUS
10
84.3551
20
84.7193
11
82.3872
21
81.1767
0
LINE
8
BLACK
6
CONTINUOUS
10
82.3872
20
81.1767
11
82.3841
21
81.1742
0
LINE
8
BLACK
6
CONTINUOUS
10
82.3841
20
81.1742
11
82.3831
21
81.1703
0
LINE
8
BLACK
6
CONTINUOUS
10
82.3831
20
81.1703
11
80.0443
21
77.9149
0
LINE
8
BLACK
6
CONTINUOUS
10
80.0443
20
77.9149
11
80.0394
21
77.9118
0
LINE
8
BLACK
6
CONTINUOUS
10
80.0394
20
77.9118
11
80.0371
21
77.9064
0
LINE
8
BLACK
6
CONTINUOUS
10
80.0371
20
77.9064
11
77.2806
21
75.1975
0
LINE
8
BLACK
6
CONTINUOUS
10
77.2806
20
75.1975
11
77.2749
21
75.1953
0
LINE
8
BLACK
6
CONTINUOUS
10
77.2749
20
75.1953
11
77.2716
21
75.1902
0
LINE
8
BLACK
6
CONTINUOUS
10
77.2716
20
75.1902
11
74.0973
21
73.0278
0
LINE
8
BLACK
6
CONTINUOUS
10
74.0973
20
73.0278
11
74.0915
21
73.0266
0
LINE
8
BLACK
6
CONTINUOUS
10
74.0915
20
73.0266
11
74.0874
21
73.0223
0
LINE
8
BLACK
6
CONTINUOUS
10
74.0874
20
73.0223
11
70.4954
21
71.4064
0
LINE
8
BLACK
6
CONTINUOUS
10
70.4954
20
71.4064
11
70.4899
21
71.4063
0
LINE
8
BLACK
6
CONTINUOUS
10
70.4899
20
71.4063
11
70.4855
21
71.4029
0
LINE
8
BLACK
6
CONTINUOUS
10
70.4855
20
71.4029
11
66.4758
21
70.3337
0
LINE
8
BLACK
6
CONTINUOUS
10
66.4758
20
70.3337
11
66.471
21
70.3343
0
LINE
8
BLACK
6
CONTINUOUS
10
66.471
20
70.3343
11
66.4667
21
70.3319
0
LINE
8
BLACK
6
CONTINUOUS
10
66.4667
20
70.3319
11
62.0393
21
69.8092
0
LINE
8
BLACK
6
CONTINUOUS
10
62.0393
20
69.8092
11
62.0353
21
69.8103
0
LINE
8
BLACK
6
CONTINUOUS
10
62.0353
20
69.8103
11
62.0314
21
69.8087
0
LINE
8
BLACK
6
CONTINUOUS
10
62.0314
20
69.8087
11
57.1863
21
69.8326
0
LINE
8
BLACK
6
CONTINUOUS
10
57.1863
20
69.8326
11
57.183
21
69.8339
0
LINE
8
BLACK
6
CONTINUOUS
10
57.183
20
69.8339
11
57.1796
21
69.8329
0
LINE
8
BLACK
6
CONTINUOUS
10
57.1796
20
69.8329
11
52.2671
21
70.3653
0
LINE
8
BLACK
6
CONTINUOUS
10
52.2671
20
70.3653
11
54.5256
21
69.2103
0
LINE
8
BLACK
6
CONTINUOUS
10
54.5256
20
69.2103
11
57.1415
21
68.07
0
LINE
8
BLACK
6
CONTINUOUS
10
57.1415
20
68.07
11
59.8029
21
67.1039
0
LINE
8
BLACK
6
CONTINUOUS
10
59.8029
20
67.1039
11
62.5097
21
66.3121
0
LINE
8
BLACK
6
CONTINUOUS
10
62.5097
20
66.3121
11
65.2622
21
65.6944
0
LINE
8
BLACK
6
CONTINUOUS
10
65.2622
20
65.6944
11
68.0602
21
65.2509
0
LINE
8
BLACK
6
CONTINUOUS
10
68.0602
20
65.2509
11
70.9038
21
64.9817
0
LINE
8
BLACK
6
CONTINUOUS
10
70.9038
20
64.9817
11
73.7951
21
64.8865
0
LINE
8
BLACK
6
CONTINUOUS
10
73.7951
20
64.8865
11
73.7957
21
64.8862
0
LINE
8
BLACK
6
CONTINUOUS
10
73.7957
20
64.8862
11
73.7964
21
64.8865
0
LINE
8
BLACK
6
CONTINUOUS
10
73.7964
20
64.8865
11
76.6432
21
64.7367
0
LINE
8
BLACK
6
CONTINUOUS
10
76.6432
20
64.7367
11
76.6465
21
64.7351
0
LINE
8
BLACK
6
CONTINUOUS
10
76.6465
20
64.7351
11
76.65
21
64.7359
0
LINE
8
BLACK
6
CONTINUOUS
10
76.65
20
64.7359
11
79.3582
21
64.3025
0
LINE
8
BLACK
6
CONTINUOUS
10
79.3582
20
64.3025
11
79.3615
21
64.3004
0
LINE
8
BLACK
6
CONTINUOUS
10
79.3615
20
64.3004
11
79.3654
21
64.3009
0
LINE
8
BLACK
6
CONTINUOUS
10
79.3654
20
64.3009
11
81.935
21
63.5838
0
LINE
8
BLACK
6
CONTINUOUS
10
81.935
20
63.5838
11
81.9382
21
63.5813
0
LINE
8
BLACK
6
CONTINUOUS
10
81.9382
20
63.5813
11
81.9423
21
63.5813
0
LINE
8
BLACK
6
CONTINUOUS
10
81.9423
20
63.5813
11
84.3733
21
62.5805
0
LINE
8
BLACK
6
CONTINUOUS
10
84.3733
20
62.5805
11
84.3762
21
62.5776
0
LINE
8
BLACK
6
CONTINUOUS
10
84.3762
20
62.5776
11
84.3804
21
62.5771
0
LINE
8
BLACK
6
CONTINUOUS
10
84.3804
20
62.5771
11
86.6728
21
61.2926
0
LINE
8
BLACK
6
CONTINUOUS
10
86.6728
20
61.2926
11
86.6753
21
61.2894
0
LINE
8
BLACK
6
CONTINUOUS
10
86.6753
20
61.2894
11
86.6793
21
61.2885
0
LINE
8
BLACK
6
CONTINUOUS
10
86.6793
20
61.2885
11
88.8331
21
59.7204
0
LINE
8
BLACK
6
CONTINUOUS
10
88.8331
20
59.7204
11
88.8352
21
59.717
0
LINE
8
BLACK
6
CONTINUOUS
10
88.8352
20
59.717
11
88.8389
21
59.7157
0
LINE
8
BLACK
6
CONTINUOUS
10
88.8389
20
59.7157
11
90.8541
21
57.8639
0
LINE
8
BLACK
6
CONTINUOUS
10
90.8541
20
57.8639
11
90.8557
21
57.8606
0
LINE
8
BLACK
6
CONTINUOUS
10
90.8557
20
57.8606
11
90.859
21
57.859
0
LINE
8
BLACK
6
CONTINUOUS
10
90.859
20
57.859
11
92.7357
21
55.7235
0
LINE
8
BLACK
6
CONTINUOUS
10
92.7357
20
55.7235
11
92.7366
21
55.7207
0
LINE
8
BLACK
6
CONTINUOUS
10
92.7366
20
55.7207
11
92.7392
21
55.7192
0
LINE
8
BLACK
6
CONTINUOUS
10
92.7392
20
55.7192
11
94.4349
21
53.4191
0
LINE
8
BLACK
6
CONTINUOUS
10
94.4349
20
53.4191
11
94.4355
21
53.4166
0
LINE
8
BLACK
6
CONTINUOUS
10
94.4355
20
53.4166
11
94.4376
21
53.4151
0
LINE
8
BLACK
6
CONTINUOUS
10
94.4376
20
53.4151
11
95.9101
21
51.0693
0
LINE
8
BLACK
6
CONTINUOUS
10
95.9101
20
51.0693
11
95.9105
21
51.0666
0
LINE
8
BLACK
6
CONTINUOUS
10
95.9105
20
51.0666
11
95.9126
21
51.0648
0
LINE
8
BLACK
6
CONTINUOUS
10
95.9126
20
51.0648
11
97.1617
21
48.6733
0
LINE
8
BLACK
6
CONTINUOUS
10
97.1617
20
48.6733
11
97.162
21
48.6704
0
LINE
8
BLACK
6
CONTINUOUS
10
97.162
20
48.6704
11
97.164
21
48.6684
0
LINE
8
BLACK
6
CONTINUOUS
10
97.164
20
48.6684
11
98.1898
21
46.2312
0
LINE
8
BLACK
6
CONTINUOUS
10
98.1898
20
46.2312
11
98.1899
21
46.2282
0
LINE
8
BLACK
6
CONTINUOUS
10
98.1899
20
46.2282
11
98.1918
21
46.2259
0
LINE
8
BLACK
6
CONTINUOUS
10
98.1918
20
46.2259
11
98.9943
21
43.743
0
LINE
8
BLACK
6
CONTINUOUS
10
98.9943
20
43.743
11
98.994
21
43.74
0
LINE
8
BLACK
6
CONTINUOUS
10
98.994
20
43.74
11
98.9958
21
43.7375
0
LINE
8
BLACK
6
CONTINUOUS
10
98.9958
20
43.7375
11
99.575
21
41.2089
0
LINE
8
BLACK
6
CONTINUOUS
10
99.575
20
41.2089
11
99.5744
21
41.2059
0
LINE
8
BLACK
6
CONTINUOUS
10
99.5744
20
41.2059
11
99.576
21
41.2033
0
LINE
8
BLACK
6
CONTINUOUS
10
99.576
20
41.2033
11
99.9318
21
38.6289
0
LINE
8
BLACK
6
CONTINUOUS
10
99.9318
20
38.6289
11
99.9311
21
38.626
0
LINE
8
BLACK
6
CONTINUOUS
10
99.9311
20
38.626
11
99.9324
21
38.6233
0
LINE
8
BLACK
6
CONTINUOUS
10
99.9324
20
38.6233
11
100.065
21
36.0033
0
LINE
8
BLACK
6
CONTINUOUS
10
100.065
20
36.0033
11
100.064
21
36.0016
0
LINE
8
BLACK
6
CONTINUOUS
10
100.064
20
36.0016
11
100.065
21
36
0
LINE
8
BLACK
6
CONTINUOUS
10
100.065
20
36
11
100.065
21
19
0
LINE
8
BLACK
6
CONTINUOUS
10
100.065
20
19
11
100.063
21
18.9946
0
LINE
8
BLACK
6
CONTINUOUS
10
100.063
20
18.9946
11
100.064
21
18.989
0
LINE
8
BLACK
6
CONTINUOUS
10
100.064
20
18.989
11
99.4337
21
15.3224
0
LINE
8
BLACK
6
CONTINUOUS
10
99.4337
20
15.3224
11
99.4307
21
15.3176
0
LINE
8
BLACK
6
CONTINUOUS
10
99.4307
20
15.3176
11
99.431
21
15.312
0
LINE
8
BLACK
6
CONTINUOUS
10
99.431
20
15.312
11
98.2979
21
12.0609
0
LINE
8
BLACK
6
CONTINUOUS
10
98.2979
20
12.0609
11
98.2936
21
12.0561
0
LINE
8
BLACK
6
CONTINUOUS
10
98.2936
20
12.0561
11
98.2928
21
12.0498
0
LINE
8
BLACK
6
CONTINUOUS
10
98.2928
20
12.0498
11
96.6568
21
9.2142
0
LINE
8
BLACK
6
CONTINUOUS
10
96.6568
20
9.2142
11
96.6515
21
9.21006
0
LINE
8
BLACK
6
CONTINUOUS
10
96.6515
20
9.21006
11
96.6492
21
9.20363
0
LINE
8
BLACK
6
CONTINUOUS
10
96.6492
20
9.20363
11
94.5105
21
6.7835
0
LINE
8
BLACK
6
CONTINUOUS
10
94.5105
20
6.7835
11
94.5045
21
6.78055
0
LINE
8
BLACK
6
CONTINUOUS
10
94.5045
20
6.78055
11
94.5011
21
6.77476
0
LINE
8
BLACK
6
CONTINUOUS
10
94.5011
20
6.77476
11
91.8595
21
4.77011
0
LINE
8
BLACK
6
CONTINUOUS
10
91.8595
20
4.77011
11
91.8536
21
4.76855
0
LINE
8
BLACK
6
CONTINUOUS
10
91.8536
20
4.76855
11
91.8495
21
4.76387
0
LINE
8
BLACK
6
CONTINUOUS
10
91.8495
20
4.76387
11
88.7052
21
3.17471
0
LINE
8
BLACK
6
CONTINUOUS
10
88.7052
20
3.17471
11
88.6999
21
3.17431
0
LINE
8
BLACK
6
CONTINUOUS
10
88.6999
20
3.17431
11
88.6958
21
3.17084
0
LINE
8
BLACK
6
CONTINUOUS
10
88.6958
20
3.17084
11
85.0486
21
1.99716
0
LINE
8
BLACK
6
CONTINUOUS
10
85.0486
20
1.99716
11
85.0442
21
1.99753
0
LINE
8
BLACK
6
CONTINUOUS
10
85.0442
20
1.99753
11
85.0404
21
1.9951
0
LINE
8
BLACK
6
CONTINUOUS
10
85.0404
20
1.9951
11
80.8904
21
1.2369
0
LINE
8
BLACK
6
CONTINUOUS
10
80.8904
20
1.2369
11
80.8878
21
1.23746
0
LINE
8
BLACK
6
CONTINUOUS
10
80.8878
20
1.23746
11
80.8855
21
1.23619
0
LINE
8
BLACK
6
CONTINUOUS
10
80.8855
20
1.23619
11
76.2237
21
0.749844
0
LINE
8
BLACK
6
CONTINUOUS
10
76.2237
20
0.749844
11
76.2225
21
0.750192
0
LINE
8
BLACK
6
CONTINUOUS
10
76.2225
20
0.750192
11
76.2214
21
0.749648
0
LINE
8
BLACK
6
CONTINUOUS
10
76.2214
20
0.749648
11
71.0388
21
0.391511
0
LINE
8
BLACK
6
CONTINUOUS
10
71.0388
20
0.391511
11
71.0378
21
0.391831
0
LINE
8
BLACK
6
CONTINUOUS
10
71.0378
20
0.391831
11
71.0369
21
0.391409
0
LINE
8
BLACK
6
CONTINUOUS
10
71.0369
20
0.391409
11
65.3334
21
0.161486
0
LINE
8
BLACK
6
CONTINUOUS
10
65.3334
20
0.161486
11
65.3326
21
0.161776
0
LINE
8
BLACK
6
CONTINUOUS
10
65.3326
20
0.161776
11
65.3318
21
0.161442
0
LINE
8
BLACK
6
CONTINUOUS
10
65.3318
20
0.161442
11
59.1074
21
0.05973
0
LINE
8
BLACK
6
CONTINUOUS
10
59.1074
20
0.05973
11
59.1068
21
0.059991
0
LINE
8
BLACK
6
CONTINUOUS
10
59.1068
20
0.059991
11
59.1061
21
0.059722
0
LINE
8
BLACK
6
CONTINUOUS
10
59.1061
20
0.059722
11
52.3608
21
0.086223
0
LINE
8
BLACK
6
CONTINUOUS
10
52.3608
20
0.086223
11
52.3603
21
0.086459
0
LINE
8
BLACK
6
CONTINUOUS
10
52.3603
20
0.086459
11
52.3597
21
0.086237
0
LINE
8
BLACK
6
CONTINUOUS
10
52.3597
20
0.086237
11
45.0935
21
0.240951
0
LINE
8
BLACK
6
CONTINUOUS
10
45.0935
20
0.240951
11
45.0931
21
0.241163
0
LINE
8
BLACK
6
CONTINUOUS
10
45.0931
20
0.241163
11
45.0926
21
0.240979
0
LINE
8
BLACK
6
CONTINUOUS
10
45.0926
20
0.240979
11
37.3055
21
0.523904
0
LINE
8
BLACK
6
CONTINUOUS
10
37.3055
20
0.523904
11
37.3051
21
0.524096
0
LINE
8
BLACK
6
CONTINUOUS
10
37.3051
20
0.524096
11
37.3047
21
0.52394
0
LINE
8
BLACK
6
CONTINUOUS
10
37.3047
20
0.52394
11
29.0256
21
0.933655
0
LINE
8
BLACK
6
CONTINUOUS
10
29.0256
20
0.933655
11
28.046
21
-0.045962
0
LINE
8
BLACK
6
CONTINUOUS
10
28.046
20
-0.045962
11
28
21
-0.065
0
LINE
8
BLACK
6
CONTINUOUS
10
28
20
-0.065
11
-28
21
-0.065
0
LINE
8
BLACK
6
CONTINUOUS
10
-28
20
-0.065
11
-28.046
21
-0.045962
0
LINE
8
BLACK
6
CONTINUOUS
10
-28.046
20
-0.045962
11
-28.046
21
-0.045961
0
LINE
8
BLACK
6
CONTINUOUS
10
-28.046
20
-0.045961
11
-29.0256
21
0.933655
0
LINE
8
BLACK
6
CONTINUOUS
10
-29.0256
20
0.933655
11
-37.3047
21
0.52394
0
LINE
8
BLACK
6
CONTINUOUS
10
-37.3047
20
0.52394
11
-37.3051
21
0.524096
0
LINE
8
BLACK
6
CONTINUOUS
10
-37.3051
20
0.524096
11
-37.3055
21
0.523904
0
LINE
8
BLACK
6
CONTINUOUS
10
-37.3055
20
0.523904
11
-45.0926
21
0.240979
0
LINE
8
BLACK
6
CONTINUOUS
10
-45.0926
20
0.240979
11
-45.0931
21
0.241163
0
LINE
8
BLACK
6
CONTINUOUS
10
-45.0931
20
0.241163
11
-45.0935
21
0.240951
0
LINE
8
BLACK
6
CONTINUOUS
10
-45.0935
20
0.240951
11
-52.3597
21
0.086237
0
LINE
8
BLACK
6
CONTINUOUS
10
-52.3597
20
0.086237
11
-52.3603
21
0.086459
0
LINE
8
BLACK
6
CONTINUOUS
10
-52.3603
20
0.086459
11
-52.3608
21
0.086223
0
LINE
8
BLACK
6
CONTINUOUS
10
-52.3608
20
0.086223
11
-59.1061
21
0.059722
0
LINE
8
BLACK
6
CONTINUOUS
10
-59.1061
20
0.059722
11
-59.1068
21
0.059991
0
LINE
8
BLACK
6
CONTINUOUS
10
-59.1068
20
0.059991
11
-59.1074
21
0.05973
0
LINE
8
BLACK
6
CONTINUOUS
10
-59.1074
20
0.05973
11
-65.3318
21
0.161442
0
LINE
8
BLACK
6
CONTINUOUS
10
-65.3318
20
0.161442
11
-65.3326
21
0.161776
0
LINE
8
BLACK
6
CONTINUOUS
10
-65.3326
20
0.161776
11
-65.3334
21
0.161486
0
LINE
8
BLACK
6
CONTINUOUS
10
-65.3334
20
0.161486
11
-71.0369
21
0.391409
0
LINE
8
BLACK
6
CONTINUOUS
10
-71.0369
20
0.391409
11
-71.0378
21
0.391831
0
LINE
8
BLACK
6
CONTINUOUS
10
-71.0378
20
0.391831
11
-71.0388
21
0.391511
0
LINE
8
BLACK
6
CONTINUOUS
10
-71.0388
20
0.391511
11
-76.2214
21
0.749648
0
LINE
8
BLACK
6
CONTINUOUS
10
-76.2214
20
0.749648
11
-76.2225
21
0.750192
0
LINE
8
BLACK
6
CONTINUOUS
10
-76.2225
20
0.750192
11
-76.2237
21
0.749844
0
LINE
8
BLACK
6
CONTINUOUS
10
-76.2237
20
0.749844
11
-80.8855
21
1.23619
0
LINE
8
BLACK
6
CONTINUOUS
10
-80.8855
20
1.23619
11
-80.8878
21
1.23746
0
LINE
8
BLACK
6
CONTINUOUS
10
-80.8878
20
1.23746
11
-80.8904
21
1.2369
0
LINE
8
BLACK
6
CONTINUOUS
10
-80.8904
20
1.2369
11
-85.0404
21
1.9951
0
LINE
8
BLACK
6
CONTINUOUS
10
-85.0404
20
1.9951
11
-85.0442
21
1.99753
0
LINE
8
BLACK
6
CONTINUOUS
10
-85.0442
20
1.99753
11
-85.0486
21
1.99716
0
LINE
8
BLACK
6
CONTINUOUS
10
-85.0486
20
1.99716
11
-88.6958
21
3.17084
0
LINE
8
BLACK
6
CONTINUOUS
10
-88.6958
20
3.17084
11
-88.6999
21
3.17431
0
LINE
8
BLACK
6
CONTINUOUS
10
-88.6999
20
3.17431
11
-88.7052
21
3.17471
0
LINE
8
BLACK
6
CONTINUOUS
10
-88.7052
20
3.17471
11
-91.8495
21
4.76387
0
LINE
8
BLACK
6
CONTINUOUS
10
-91.8495
20
4.76387
11
-91.8536
21
4.76855
0
LINE
8
BLACK
6
CONTINUOUS
10
-91.8536
20
4.76855
11
-91.8595
21
4.77011
0
LINE
8
BLACK
6
CONTINUOUS
10
-91.8595
20
4.77011
11
-94.5011
21
6.77476
0
LINE
8
BLACK
6
CONTINUOUS
10
-94.5011
20
6.77476
11
-94.5045
21
6.78055
0
LINE
8
BLACK
6
CONTINUOUS
10
-94.5045
20
6.78055
11
-94.5105
21
6.7835
0
LINE
8
BLACK
6
CONTINUOUS
10
-94.5105
20
6.7835
11
-96.6492
21
9.20363
0
LINE
8
BLACK
6
CONTINUOUS
10
-96.6492
20
9.20363
11
-96.6515
21
9.21006
0
LINE
8
BLACK
6
CONTINUOUS
10
-96.6515
20
9.21006
11
-96.6568
21
9.2142
0
LINE
8
BLACK
6
CONTINUOUS
10
-96.6568
20
9.2142
11
-98.2928
21
12.0498
0
LINE
8
BLACK
6
CONTINUOUS
10
-98.2928
20
12.0498
11
-98.2936
21
12.0561
0
LINE
8
BLACK
6
CONTINUOUS
10
-98.2936
20
12.0561
11
-98.2979
21
12.0609
0
LINE
8
BLACK
6
CONTINUOUS
10
-98.2979
20
12.0609
11
-99.431
21
15.312
0
LINE
8
BLACK
6
CONTINUOUS
10
-99.431
20
15.312
11
-99.4307
21
15.3176
0
LINE
8
BLACK
6
CONTINUOUS
10
-99.4307
20
15.3176
11
-99.4337
21
15.3224
0
LINE
8
BLACK
6
CONTINUOUS
10
-99.4337
20
15.3224
11
-100.064
21
18.989
0
LINE
8
BLACK
6
CONTINUOUS
10
-100.064
20
18.989
11
-100.063
21
18.9946
0
LINE
8
BLACK
6
CONTINUOUS
10
-100.063
20
18.9946
11
-100.065
21
19
0
LINE
8
BLACK
6
CONTINUOUS
10
-100.065
20
19
11
-100.065
21
36
0
LINE
8
BLACK
6
CONTINUOUS
10
-100.065
20
36
11
-100.064
21
36.0016
0
LINE
8
BLACK
6
CONTINUOUS
10
-100.064
20
36.0016
11
-100.065
21
36.0033
0
LINE
8
BLACK
6
CONTINUOUS
10
-100.065
20
36.0033
11
-99.9324
21
38.6233
0
LINE
8
BLACK
6
CONTINUOUS
10
-99.9324
20
38.6233
11
-99.9311
21
38.626
0
LINE
8
BLACK
6
CONTINUOUS
10
-99.9311
20
38.626
11
-99.9318
21
38.6289
0
LINE
8
BLACK
6
CONTINUOUS
10
-99.9318
20
38.6289
11
-99.576
21
41.2033
0
LINE
8
BLACK
6
CONTINUOUS
10
-99.576
20
41.2033
11
-99.5744
21
41.2059
0
LINE
8
BLACK
6
CONTINUOUS
10
-99.5744
20
41.2059
11
-99.575
21
41.2089
0
LINE
8
BLACK
6
CONTINUOUS
10
-99.575
20
41.2089
11
-98.9958
21
43.7375
0
LINE
8
BLACK
6
CONTINUOUS
10
-98.9958
20
43.7375
11
-98.994
21
43.74
0
LINE
8
BLACK
6
CONTINUOUS
10
-98.994
20
43.74
11
-98.9943
21
43.743
0
LINE
8
BLACK
6
CONTINUOUS
10
-98.9943
20
43.743
11
-98.1918
21
46.2259
0
LINE
8
BLACK
6
CONTINUOUS
10
-98.1918
20
46.2259
11
-98.1899
21
46.2282
0
LINE
8
BLACK
6
CONTINUOUS
10
-98.1899
20
46.2282
11
-98.1898
21
46.2312
0
LINE
8
BLACK
6
CONTINUOUS
10
-98.1898
20
46.2312
11
-97.164
21
48.6684
0
LINE
8
BLACK
6
CONTINUOUS
10
-97.164
20
48.6684
11
-97.162
21
48.6704
0
LINE
8
BLACK
6
CONTINUOUS
10
-97.162
20
48.6704
11
-97.1617
21
48.6733
0
LINE
8
BLACK
6
CONTINUOUS
10
-97.1617
20
48.6733
11
-95.9126
21
51.0648
0
LINE
8
BLACK
6
CONTINUOUS
10
-95.9126
20
51.0648
11
-95.9105
21
51.0666
0
LINE
8
BLACK
6
CONTINUOUS
10
-95.9105
20
51.0666
11
-95.9101
21
51.0693
0
LINE
8
BLACK
6
CONTINUOUS
10
-95.9101
20
51.0693
11
-94.4376
21
53.4151
0
LINE
8
BLACK
6
CONTINUOUS
10
-94.4376
20
53.4151
11
-94.4355
21
53.4166
0
LINE
8
BLACK
6
CONTINUOUS
10
-94.4355
20
53.4166
11
-94.4349
21
53.4191
0
LINE
8
BLACK
6
CONTINUOUS
10
-94.4349
20
53.4191
11
-92.7392
21
55.7192
0
LINE
8
BLACK
6
CONTINUOUS
10
-92.7392
20
55.7192
11
-92.7366
21
55.7207
0
LINE
8
BLACK
6
CONTINUOUS
10
-92.7366
20
55.7207
11
-92.7357
21
55.7235
0
LINE
8
BLACK
6
CONTINUOUS
10
-92.7357
20
55.7235
11
-90.859
21
57.859
0
LINE
8
BLACK
6
CONTINUOUS
10
-90.859
20
57.859
11
-90.8557
21
57.8606
0
LINE
8
BLACK
6
CONTINUOUS
10
-90.8557
20
57.8606
11
-90.8541
21
57.8639
0
LINE
8
BLACK
6
CONTINUOUS
10
-90.8541
20
57.8639
11
-88.8389
21
59.7157
0
LINE
8
BLACK
6
CONTINUOUS
10
-88.8389
20
59.7157
11
-88.8352
21
59.717
0
LINE
8
BLACK
6
CONTINUOUS
10
-88.8352
20
59.717
11
-88.8331
21
59.7204
0
LINE
8
BLACK
6
CONTINUOUS
10
-88.8331
20
59.7204
11
-86.6793
21
61.2885
0
LINE
8
BLACK
6
CONTINUOUS
10
-86.6793
20
61.2885
11
-86.6753
21
61.2894
0
LINE
8
BLACK
6
CONTINUOUS
10
-86.6753
20
61.2894
11
-86.6728
21
61.2926
0
LINE
8
BLACK
6
CONTINUOUS
10
-86.6728
20
61.2926
11
-84.3804
21
62.5771
0
LINE
8
BLACK
6
CONTINUOUS
10
-84.3804
20
62.5771
11
-84.3762
21
62.5776
0
LINE
8
BLACK
6
CONTINUOUS
10
-84.3762
20
62.5776
11
-84.3733
21
62.5805
0
LINE
8
BLACK
6
CONTINUOUS
10
-84.3733
20
62.5805
11
-81.9423
21
63.5813
0
LINE
8
BLACK
6
CONTINUOUS
10
-81.9423
20
63.5813
11
-81.9382
21
63.5813
0
LINE
8
BLACK
6
CONTINUOUS
10
-81.9382
20
63.5813
11
-81.935
21
63.5838
0
LINE
8
BLACK
6
CONTINUOUS
10
-81.935
20
63.5838
11
-79.3654
21
64.3009
0
LINE
8
BLACK
6
CONTINUOUS
10
-79.3654
20
64.3009
11
-79.3615
21
64.3004
0
LINE
8
BLACK
6
CONTINUOUS
10
-79.3615
20
64.3004
11
-79.3582
21
64.3025
0
LINE
8
BLACK
6
CONTINUOUS
10
-79.3582
20
64.3025
11
-76.65
21
64.7359
0
LINE
8
BLACK
6
CONTINUOUS
10
-76.65
20
64.7359
11
-76.6465
21
64.7351
0
LINE
8
BLACK
6
CONTINUOUS
10
-76.6465
20
64.7351
11
-76.6432
21
64.7367
0
LINE
8
BLACK
6
CONTINUOUS
10
-76.6432
20
64.7367
11
-73.7964
21
64.8865
0
LINE
8
BLACK
6
CONTINUOUS
10
-73.7964
20
64.8865
11
-73.7957
21
64.8862
0
LINE
8
BLACK
6
CONTINUOUS
10
-73.7957
20
64.8862
11
-73.7951
21
64.8865
0
LINE
8
BLACK
6
CONTINUOUS
10
-73.7951
20
64.8865
11
-70.9038
21
64.9817
0
LINE
8
BLACK
6
CONTINUOUS
10
-70.9038
20
64.9817
11
-68.0602
21
65.2509
0
LINE
8
BLACK
6
CONTINUOUS
10
-68.0602
20
65.2509
11
-65.2622
21
65.6944
0
LINE
8
BLACK
6
CONTINUOUS
10
-65.2622
20
65.6944
11
-62.5097
21
66.3121
0
LINE
8
BLACK
6
CONTINUOUS
10
-62.5097
20
66.3121
11
-59.8029
21
67.1039
0
LINE
8
BLACK
6
CONTINUOUS
10
-59.8029
20
67.1039
11
-57.1415
21
68.07
0
LINE
8
BLACK
6
CONTINUOUS
10
-57.1415
20
68.07
11
-54.5256
21
69.2103
0
LINE
8
BLACK
6
CONTINUOUS
10
-54.5256
20
69.2103
11
-52.2671
21
70.3653
0
LINE
8
BLACK
6
CONTINUOUS
10
-52.2671
20
70.3653
11
-57.1796
21
69.8329
0
LINE
8
BLACK
6
CONTINUOUS
10
-57.1796
20
69.8329
11
-57.183
21
69.8339
0
LINE
8
BLACK
6
CONTINUOUS
10
-57.183
20
69.8339
11
-57.1863
21
69.8326
0
LINE
8
BLACK
6
CONTINUOUS
10
-57.1863
20
69.8326
11
-62.0314
21
69.8087
0
LINE
8
BLACK
6
CONTINUOUS
10
-62.0314
20
69.8087
11
-62.0353
21
69.8103
0
LINE
8
BLACK
6
CONTINUOUS
10
-62.0353
20
69.8103
11
-62.0393
21
69.8092
0
LINE
8
BLACK
6
CONTINUOUS
10
-62.0393
20
69.8092
11
-66.4667
21
70.3319
0
LINE
8
BLACK
6
CONTINUOUS
10
-66.4667
20
70.3319
11
-66.471
21
70.3343
0
LINE
8
BLACK
6
CONTINUOUS
10
-66.471
20
70.3343
11
-66.4758
21
70.3337
0
LINE
8
BLACK
6
CONTINUOUS
10
-66.4758
20
70.3337
11
-70.4855
21
71.4029
0
LINE
8
BLACK
6
CONTINUOUS
10
-70.4855
20
71.4029
11
-70.4899
21
71.4063
0
LINE
8
BLACK
6
CONTINUOUS
10
-70.4899
20
71.4063
11
-70.4954
21
71.4064
0
LINE
8
BLACK
6
CONTINUOUS
10
-70.4954
20
71.4064
11
-74.0874
21
73.0223
0
LINE
8
BLACK
6
CONTINUOUS
10
-74.0874
20
73.0223
11
-74.0915
21
73.0266
0
LINE
8
BLACK
6
CONTINUOUS
10
-74.0915
20
73.0266
11
-74.0973
21
73.0278
0
LINE
8
BLACK
6
CONTINUOUS
10
-74.0973
20
73.0278
11
-77.2716
21
75.1902
0
LINE
8
BLACK
6
CONTINUOUS
10
-77.2716
20
75.1902
11
-77.2749
21
75.1953
0
LINE
8
BLACK
6
CONTINUOUS
10
-77.2749
20
75.1953
11
-77.2806
21
75.1975
0
LINE
8
BLACK
6
CONTINUOUS
10
-77.2806
20
75.1975
11
-80.0371
21
77.9064
0
LINE
8
BLACK
6
CONTINUOUS
10
-80.0371
20
77.9064
11
-80.0394
21
77.9118
0
LINE
8
BLACK
6
CONTINUOUS
10
-80.0394
20
77.9118
11
-80.0443
21
77.9149
0
LINE
8
BLACK
6
CONTINUOUS
10
-80.0443
20
77.9149
11
-82.3831
21
81.1703
0
LINE
8
BLACK
6
CONTINUOUS
10
-82.3831
20
81.1703
11
-82.3841
21
81.1742
0
LINE
8
BLACK
6
CONTINUOUS
10
-82.3841
20
81.1742
11
-82.3872
21
81.1767
0
LINE
8
BLACK
6
CONTINUOUS
10
-82.3872
20
81.1767
11
-84.3551
21
84.7193
0
LINE
8
BLACK
6
CONTINUOUS
10
-84.3551
20
84.7193
11
-84.3554
21
84.7219
0
LINE
8
BLACK
6
CONTINUOUS
10
-84.3554
20
84.7219
11
-84.3574
21
84.7236
0
LINE
8
BLACK
6
CONTINUOUS
10
-84.3574
20
84.7236
11
-86.0014
21
88.2939
0
LINE
8
BLACK
6
CONTINUOUS
10
-86.0014
20
88.2939
11
-86.0015
21
88.2967
0
LINE
8
BLACK
6
CONTINUOUS
10
-86.0015
20
88.2967
11
-86.0033
21
88.2987
0
LINE
8
BLACK
6
CONTINUOUS
10
-86.0033
20
88.2987
11
-87.3234
21
91.8967
0
LINE
8
BLACK
6
CONTINUOUS
10
-87.3234
20
91.8967
11
-87.3233
21
91.8996
0
LINE
8
BLACK
6
CONTINUOUS
10
-87.3233
20
91.8996
11
-87.325
21
91.9018
0
LINE
8
BLACK
6
CONTINUOUS
10
-87.325
20
91.9018
11
-88.3211
21
95.5275
0
LINE
8
BLACK
6
CONTINUOUS
10
-88.3211
20
95.5275
11
-88.3207
21
95.5305
0
LINE
8
BLACK
6
CONTINUOUS
10
-88.3207
20
95.5305
11
-88.3223
21
95.533
0
LINE
8
BLACK
6
CONTINUOUS
10
-88.3223
20
95.533
11
-88.9944
21
99.1864
0
LINE
8
BLACK
6
CONTINUOUS
10
-88.9944
20
99.1864
11
-88.9938
21
99.1893
0
LINE
8
BLACK
6
CONTINUOUS
10
-88.9938
20
99.1893
11
-88.9952
21
99.192
0
LINE
8
BLACK
6
CONTINUOUS
10
-88.9952
20
99.192
11
-89.3433
21
102.873
0
LINE
8
BLACK
6
CONTINUOUS
10
-89.3433
20
102.873
11
-89.3424
21
102.876
0
LINE
8
BLACK
6
CONTINUOUS
10
-89.3424
20
102.876
11
-89.3436
21
102.879
0
LINE
8
BLACK
6
CONTINUOUS
10
-89.3436
20
102.879
11
-89.3677
21
106.588
0
LINE
8
BLACK
6
CONTINUOUS
10
-89.3677
20
106.588
11
-89.3666
21
106.59
0
LINE
8
BLACK
6
CONTINUOUS
10
-89.3666
20
106.59
11
-89.3675
21
106.593
0
LINE
8
BLACK
6
CONTINUOUS
10
-89.3675
20
106.593
11
-89.0676
21
110.33
0
LINE
8
BLACK
6
CONTINUOUS
10
-89.0676
20
110.33
11
-89.0663
21
110.332
0
LINE
8
BLACK
6
CONTINUOUS
10
-89.0663
20
110.332
11
-89.067
21
110.335
0
LINE
8
BLACK
6
CONTINUOUS
10
-89.067
20
110.335
11
-88.4624
21
114.029
0
LINE
8
BLACK
6
CONTINUOUS
10
-88.4624
20
114.029
11
-88.4609
21
114.031
0
LINE
8
BLACK
6
CONTINUOUS
10
-88.4609
20
114.031
11
-88.4613
21
114.034
0
LINE
8
BLACK
6
CONTINUOUS
10
-88.4613
20
114.034
11
-87.5711
21
117.616
0
LINE
8
BLACK
6
CONTINUOUS
10
-87.5711
20
117.616
11
-87.5694
21
117.618
0
LINE
8
BLACK
6
CONTINUOUS
10
-87.5694
20
117.618
11
-87.5696
21
117.621
0
LINE
8
BLACK
6
CONTINUOUS
10
-87.5696
20
117.621
11
-86.3939
21
121.09
0
LINE
8
BLACK
6
CONTINUOUS
10
-86.3939
20
121.09
11
-86.392
21
121.092
0
LINE
8
BLACK
6
CONTINUOUS
10
-86.392
20
121.092
11
-86.3919
21
121.095
0
LINE
8
BLACK
6
CONTINUOUS
10
-86.3919
20
121.095
11
-84.9306
21
124.451
0
LINE
8
BLACK
6
CONTINUOUS
10
-84.9306
20
124.451
11
-84.9286
21
124.453
0
LINE
8
BLACK
6
CONTINUOUS
10
-84.9286
20
124.453
11
-84.9283
21
124.456
0
LINE
8
BLACK
6
CONTINUOUS
10
-84.9283
20
124.456
11
-83.1814
21
127.7
0
LINE
8
BLACK
6
CONTINUOUS
10
-83.1814
20
127.7
11
-83.1793
21
127.702
0
LINE
8
BLACK
6
CONTINUOUS
10
-83.1793
20
127.702
11
-83.1787
21
127.705
0
LINE
8
BLACK
6
CONTINUOUS
10
-83.1787
20
127.705
11
-81.1463
21
130.836
0
LINE
8
BLACK
6
CONTINUOUS
10
-81.1463
20
130.836
11
-81.1441
21
130.838
0
LINE
8
BLACK
6
CONTINUOUS
10
-81.1441
20
130.838
11
-81.1434
21
130.84
0
LINE
8
BLACK
6
CONTINUOUS
10
-81.1434
20
130.84
11
-78.8254
21
133.859
0
LINE
8
BLACK
6
CONTINUOUS
10
-78.8254
20
133.859
11
-78.8232
21
133.861
0
LINE
8
BLACK
6
CONTINUOUS
10
-78.8232
20
133.861
11
-78.8223
21
133.863
0
LINE
8
BLACK
6
CONTINUOUS
10
-78.8223
20
133.863
11
-76.2188
21
136.769
0
LINE
8
BLACK
6
CONTINUOUS
10
-76.2188
20
136.769
11
-76.2162
21
136.771
0
LINE
8
BLACK
6
CONTINUOUS
10
-76.2162
20
136.771
11
-76.215
21
136.773
0
LINE
8
BLACK
6
CONTINUOUS
10
-76.215
20
136.773
11
-73.361
21
139.464
0
LINE
8
BLACK
6
CONTINUOUS
10
-73.361
20
139.464
11
-73.3579
21
139.465
0
LINE
8
BLACK
6
CONTINUOUS
10
-73.3579
20
139.465
11
-73.3562
21
139.468
0
LINE
8
BLACK
6
CONTINUOUS
10
-73.3562
20
139.468
11
-70.287
21
141.838
0
LINE
8
BLACK
6
CONTINUOUS
10
-70.287
20
141.838
11
-70.2837
21
141.839
0
LINE
8
BLACK
6
CONTINUOUS
10
-70.2837
20
141.839
11
-70.2817
21
141.842
0
LINE
8
BLACK
6
CONTINUOUS
10
-70.2817
20
141.842
11
-66.9971
21
143.892
0
LINE
8
BLACK
6
CONTINUOUS
10
-66.9971
20
143.892
11
-66.9938
21
143.893
0
LINE
8
BLACK
6
CONTINUOUS
10
-66.9938
20
143.893
11
-66.9915
21
143.895
0
LINE
8
BLACK
6
CONTINUOUS
10
-66.9915
20
143.895
11
-63.4917
21
145.626
0
LINE
8
BLACK
6
CONTINUOUS
10
-63.4917
20
145.626
11
-63.4884
21
145.626
0
LINE
8
BLACK
6
CONTINUOUS
10
-63.4884
20
145.626
11
-63.486
21
145.628
0
LINE
8
BLACK
6
CONTINUOUS
10
-63.486
20
145.628
11
-59.7708
21
147.039
0
LINE
8
BLACK
6
CONTINUOUS
10
-59.7708
20
147.039
11
-59.7676
21
147.039
0
LINE
8
BLACK
6
CONTINUOUS
10
-59.7676
20
147.039
11
-59.7651
21
147.041
0
LINE
8
BLACK
6
CONTINUOUS
10
-59.7651
20
147.041
11
-55.8347
21
148.132
0
LINE
8
BLACK
6
CONTINUOUS
10
-55.8347
20
148.132
11
-55.8317
21
148.131
0
LINE
8
BLACK
6
CONTINUOUS
10
-55.8317
20
148.131
11
-55.8292
21
148.133
0
LINE
8
BLACK
6
CONTINUOUS
10
-55.8292
20
148.133
11
-51.6835
21
148.904
0
LINE
8
BLACK
6
CONTINUOUS
10
-51.6835
20
148.904
11
-51.6807
21
148.903
0
LINE
8
BLACK
6
CONTINUOUS
10
-51.6807
20
148.903
11
-51.6783
21
148.905
0
LINE
8
BLACK
6
CONTINUOUS
10
-51.6783
20
148.905
11
-47.5382
21
149.333
0
LINE
8
BLACK
6
CONTINUOUS
10
-47.5382
20
149.333
11
-50.5703
21
150.859
0
LINE
8
BLACK
6
CONTINUOUS
10
-50.5703
20
150.859
11
-50.5724
21
150.861
0
LINE
8
BLACK
6
CONTINUOUS
10
-50.5724
20
150.861
11
-50.5756
21
150.862
0
LINE
8
BLACK
6
CONTINUOUS
10
-50.5756
20
150.862
11
-53.395
21
152.629
0
LINE
8
BLACK
6
CONTINUOUS
10
-53.395
20
152.629
11
-53.3972
21
152.632
0
LINE
8
BLACK
6
CONTINUOUS
10
-53.3972
20
152.632
11
-53.4009
21
152.633
0
LINE
8
BLACK
6
CONTINUOUS
10
-53.4009
20
152.633
11
-55.8093
21
154.542
0
LINE
8
BLACK
6
CONTINUOUS
10
-55.8093
20
154.542
11
-55.8115
21
154.546
0
LINE
8
BLACK
6
CONTINUOUS
10
-55.8115
20
154.546
11
-55.8155
21
154.547
0
LINE
8
BLACK
6
CONTINUOUS
10
-55.8155
20
154.547
11
-57.8129
21
156.598
0
LINE
8
BLACK
6
CONTINUOUS
10
-57.8129
20
156.598
11
-57.8148
21
156.602
0
LINE
8
BLACK
6
CONTINUOUS
10
-57.8148
20
156.602
11
-57.819
21
156.605
0
LINE
8
BLACK
6
CONTINUOUS
10
-57.819
20
156.605
11
-59.4054
21
158.797
0
LINE
8
BLACK
6
CONTINUOUS
10
-59.4054
20
158.797
11
-59.4066
21
158.802
0
LINE
8
BLACK
6
CONTINUOUS
10
-59.4066
20
158.802
11
-59.4108
21
158.805
0
LINE
8
BLACK
6
CONTINUOUS
10
-59.4108
20
158.805
11
-60.5861
21
161.139
0
LINE
8
BLACK
6
CONTINUOUS
10
-60.5861
20
161.139
11
-60.5865
21
161.144
0
LINE
8
BLACK
6
CONTINUOUS
10
-60.5865
20
161.144
11
-60.5902
21
161.149
0
LINE
8
BLACK
6
CONTINUOUS
10
-60.5902
20
161.149
11
-61.3545
21
163.624
0
LINE
8
BLACK
6
CONTINUOUS
10
-61.3545
20
163.624
11
-61.3539
21
163.629
0
LINE
8
BLACK
6
CONTINUOUS
10
-61.3539
20
163.629
11
-61.3568
21
163.634
0
LINE
8
BLACK
6
CONTINUOUS
10
-61.3568
20
163.634
11
-61.71
21
166.251
0
LINE
8
BLACK
6
CONTINUOUS
10
-61.71
20
166.251
11
-61.709
21
166.254
0
LINE
8
BLACK
6
CONTINUOUS
10
-61.709
20
166.254
11
-61.7106
21
166.258
0
LINE
8
BLACK
6
CONTINUOUS
10
-61.7106
20
166.258
11
-61.7665
21
168.877
0
LINE
8
BLACK
6
CONTINUOUS
10
-61.7665
20
168.877
11
-61.7656
21
168.879
0
LINE
8
BLACK
6
CONTINUOUS
10
-61.7656
20
168.879
11
-61.7665
21
168.882
0
LINE
8
BLACK
6
CONTINUOUS
10
-61.7665
20
168.882
11
-61.6388
21
171.365
0
LINE
8
BLACK
6
CONTINUOUS
10
-61.6388
20
171.365
11
-61.6376
21
171.368
0
LINE
8
BLACK
6
CONTINUOUS
10
-61.6376
20
171.368
11
-61.6383
21
171.371
0
LINE
8
BLACK
6
CONTINUOUS
10
-61.6383
20
171.371
11
-61.327
21
173.718
0
LINE
8
BLACK
6
CONTINUOUS
10
-61.327
20
173.718
11
-61.3254
21
173.721
0
LINE
8
BLACK
6
CONTINUOUS
10
-61.3254
20
173.721
11
-61.3259
21
173.724
0
LINE
8
BLACK
6
CONTINUOUS
10
-61.3259
20
173.724
11
-60.831
21
175.936
0
LINE
8
BLACK
6
CONTINUOUS
10
-60.831
20
175.936
11
-60.8291
21
175.939
0
LINE
8
BLACK
6
CONTINUOUS
10
-60.8291
20
175.939
11
-60.8293
21
175.942
0
LINE
8
BLACK
6
CONTINUOUS
10
-60.8293
20
175.942
11
-60.1508
21
178.019
0
LINE
8
BLACK
6
CONTINUOUS
10
-60.1508
20
178.019
11
-60.1485
21
178.021
0
LINE
8
BLACK
6
CONTINUOUS
10
-60.1485
20
178.021
11
-60.1484
21
178.025
0
LINE
8
BLACK
6
CONTINUOUS
10
-60.1484
20
178.025
11
-59.2862
21
179.966
0
LINE
8
BLACK
6
CONTINUOUS
10
-59.2862
20
179.966
11
-59.2835
21
179.968
0
LINE
8
BLACK
6
CONTINUOUS
10
-59.2835
20
179.968
11
-59.283
21
179.972
0
LINE
8
BLACK
6
CONTINUOUS
10
-59.283
20
179.972
11
-58.2372
21
181.777
0
LINE
8
BLACK
6
CONTINUOUS
10
-58.2372
20
181.777
11
-58.2342
21
181.779
0
LINE
8
BLACK
6
CONTINUOUS
10
-58.2342
20
181.779
11
-58.2332
21
181.783
0
LINE
8
BLACK
6
CONTINUOUS
10
-58.2332
20
181.783
11
-57.0038
21
183.452
0
LINE
8
BLACK
6
CONTINUOUS
10
-57.0038
20
183.452
11
-57.0014
21
183.453
0
LINE
8
BLACK
6
CONTINUOUS
10
-57.0014
20
183.453
11
-57.0005
21
183.456
0
LINE
8
BLACK
6
CONTINUOUS
10
-57.0005
20
183.456
11
-55.642
21
185.017
0
LINE
8
BLACK
6
CONTINUOUS
10
-55.642
20
185.017
11
-55.6404
21
185.018
0
LINE
8
BLACK
6
CONTINUOUS
10
-55.6404
20
185.018
11
-55.6397
21
185.02
0
LINE
8
BLACK
6
CONTINUOUS
10
-55.6397
20
185.02
11
-54.207
21
186.502
0
LINE
8
BLACK
6
CONTINUOUS
10
-54.207
20
186.502
11
-54.2053
21
186.502
0
LINE
8
BLACK
6
CONTINUOUS
10
-54.2053
20
186.502
11
-54.2045
21
186.504
0
LINE
8
BLACK
6
CONTINUOUS
10
-54.2045
20
186.504
11
-52.6975
21
187.906
0
LINE
8
BLACK
6
CONTINUOUS
10
-52.6975
20
187.906
11
-52.6958
21
187.907
0
LINE
8
BLACK
6
CONTINUOUS
10
-52.6958
20
187.907
11
-52.6949
21
187.908
0
LINE
8
BLACK
6
CONTINUOUS
10
-52.6949
20
187.908
11
-51.1136
21
189.23
0
LINE
8
BLACK
6
CONTINUOUS
10
-51.1136
20
189.23
11
-51.1119
21
189.231
0
LINE
8
BLACK
6
CONTINUOUS
10
-51.1119
20
189.231
11
-51.1109
21
189.232
0
LINE
8
BLACK
6
CONTINUOUS
10
-51.1109
20
189.232
11
-49.4553
21
190.475
0
LINE
8
BLACK
6
CONTINUOUS
10
-49.4553
20
190.475
11
-49.4536
21
190.475
0
LINE
8
BLACK
6
CONTINUOUS
10
-49.4536
20
190.475
11
-49.4526
21
190.477
0
LINE
8
BLACK
6
CONTINUOUS
10
-49.4526
20
190.477
11
-47.7227
21
191.639
0
LINE
8
BLACK
6
CONTINUOUS
10
-47.7227
20
191.639
11
-47.7209
21
191.639
0
LINE
8
BLACK
6
CONTINUOUS
10
-47.7209
20
191.639
11
-47.7199
21
191.641
0
LINE
8
BLACK
6
CONTINUOUS
10
-47.7199
20
191.641
11
-45.9157
21
192.723
0
LINE
8
BLACK
6
CONTINUOUS
10
-45.9157
20
192.723
11
-45.9139
21
192.724
0
LINE
8
BLACK
6
CONTINUOUS
10
-45.9139
20
192.724
11
-45.9128
21
192.725
0
LINE
8
BLACK
6
CONTINUOUS
10
-45.9128
20
192.725
11
-44.0343
21
193.728
0
LINE
8
BLACK
6
CONTINUOUS
10
-44.0343
20
193.728
11
-44.0326
21
193.728
0
LINE
8
BLACK
6
CONTINUOUS
10
-44.0326
20
193.728
11
-44.0313
21
193.729
0
LINE
8
BLACK
6
CONTINUOUS
10
-44.0313
20
193.729
11
-42.0577
21
194.655
0
LINE
8
BLACK
6
CONTINUOUS
10
-42.0577
20
194.655
11
-42.056
21
194.656
0
LINE
8
BLACK
6
CONTINUOUS
10
-42.056
20
194.656
11
-42.0547
21
194.657
0
LINE
8
BLACK
6
CONTINUOUS
10
-42.0547
20
194.657
11
-39.9651
21
195.509
0
LINE
8
BLACK
6
CONTINUOUS
10
-39.9651
20
195.509
11
-39.9635
21
195.509
0
LINE
8
BLACK
6
CONTINUOUS
10
-39.9635
20
195.509
11
-39.9622
21
195.511
0
LINE
8
BLACK
6
CONTINUOUS
10
-39.9622
20
195.511
11
-37.7567
21
196.29
0
LINE
8
BLACK
6
CONTINUOUS
10
-37.7567
20
196.29
11
-37.7552
21
196.29
0
LINE
8
BLACK
6
CONTINUOUS
10
-37.7552
20
196.29
11
-37.754
21
196.291
0
LINE
8
BLACK
6
CONTINUOUS
10
-37.754
20
196.291
11
-35.4325
21
196.997
0
LINE
8
BLACK
6
CONTINUOUS
10
-35.4325
20
196.997
11
-35.4311
21
196.996
0
LINE
8
BLACK
6
CONTINUOUS
10
-35.4311
20
196.996
11
-35.43
21
196.997
0
LINE
8
BLACK
6
CONTINUOUS
10
-35.43
20
196.997
11
-32.9926
21
197.63
0
LINE
8
BLACK
6
CONTINUOUS
10
-32.9926
20
197.63
11
-32.9913
21
197.629
0
LINE
8
BLACK
6
CONTINUOUS
10
-32.9913
20
197.629
11
-32.9902
21
197.63
0
LINE
8
BLACK
6
CONTINUOUS
10
-32.9902
20
197.63
11
-30.4368
21
198.189
0
LINE
8
BLACK
6
CONTINUOUS
10
-30.4368
20
198.189
11
-30.4356
21
198.189
0
LINE
8
BLACK
6
CONTINUOUS
10
-30.4356
20
198.189
11
-30.4346
21
198.189
0
LINE
8
BLACK
6
CONTINUOUS
10
-30.4346
20
198.189
11
-27.7653
21
198.675
0
LINE
8
BLACK
6
CONTINUOUS
10
-27.7653
20
198.675
11
-27.7642
21
198.675
0
LINE
8
BLACK
6
CONTINUOUS
10
-27.7642
20
198.675
11
-27.7632
21
198.675
0
LINE
8
BLACK
6
CONTINUOUS
10
-27.7632
20
198.675
11
-24.9779
21
199.087
0
LINE
8
BLACK
6
CONTINUOUS
10
-24.9779
20
199.087
11
-24.9765
21
199.087
0
LINE
8
BLACK
6
CONTINUOUS
10
-24.9765
20
199.087
11
-24.9751
21
199.088
0
LINE
8
BLACK
6
CONTINUOUS
10
-24.9751
20
199.088
11
-22.0972
21
199.384
0
LINE
8
BLACK
6
CONTINUOUS
10
-22.0972
20
199.384
11
-22.0953
21
199.384
0
LINE
8
BLACK
6
CONTINUOUS
10
-22.0953
20
199.384
11
-22.0936
21
199.384
0
LINE
8
BLACK
6
CONTINUOUS
10
-22.0936
20
199.384
11
-19.1462
21
199.524
0
LINE
8
BLACK
6
CONTINUOUS
10
-19.1462
20
199.524
11
-19.1445
21
199.524
0
LINE
8
BLACK
6
CONTINUOUS
10
-19.1445
20
199.524
11
-19.1427
21
199.524
0
LINE
8
BLACK
6
CONTINUOUS
10
-19.1427
20
199.524
11
-16.1259
21
199.507
0
LINE
8
BLACK
6
CONTINUOUS
10
-16.1259
20
199.507
11
-16.1243
21
199.506
0
LINE
8
BLACK
6
CONTINUOUS
10
-16.1243
20
199.506
11
-16.1226
21
199.507
0
LINE
8
BLACK
6
CONTINUOUS
10
-16.1226
20
199.507
11
-13.0363
21
199.332
0
LINE
8
BLACK
6
CONTINUOUS
10
-13.0363
20
199.332
11
-13.0348
21
199.332
0
LINE
8
BLACK
6
CONTINUOUS
10
-13.0348
20
199.332
11
-13.0332
21
199.332
0
LINE
8
BLACK
6
CONTINUOUS
10
-13.0332
20
199.332
11
-9.87737
21
199.001
0
LINE
8
BLACK
6
CONTINUOUS
10
-9.87737
20
199.001
11
-9.87597
21
199
0
LINE
8
BLACK
6
CONTINUOUS
10
-9.87597
20
199
11
-9.87442
21
199
0
LINE
8
BLACK
6
CONTINUOUS
10
-9.87442
20
199
11
-6.64917
21
198.512
0
LINE
8
BLACK
6
CONTINUOUS
10
-6.64917
20
198.512
11
-6.64789
21
198.511
0
LINE
8
BLACK
6
CONTINUOUS
10
-6.64789
20
198.511
11
-6.64641
21
198.512
0
LINE
8
BLACK
6
CONTINUOUS
10
-6.64641
20
198.512
11
-3.35169
21
197.866
0
LINE
8
BLACK
6
CONTINUOUS
10
-3.35169
20
197.866
11
-3.35051
21
197.865
0
LINE
8
BLACK
6
CONTINUOUS
10
-3.35051
20
197.865
11
-3.3491
21
197.866
0
LINE
8
BLACK
6
CONTINUOUS
10
-3.3491
20
197.866
11
-1e-06
21
197.067
0
LINE
8
BLACK
6
CONTINUOUS
10
-1e-06
20
197.067
11
3.3491
21
197.866
0
LINE
8
BLACK
6
CONTINUOUS
10
3.3491
20
197.866
11
3.35051
21
197.865
0
LINE
8
BLACK
6
CONTINUOUS
10
3.35051
20
197.865
11
3.35169
21
197.866
0
LINE
8
BLACK
6
CONTINUOUS
10
3.35169
20
197.866
11
6.64641
21
198.512
0
LINE
8
BLACK
6
CONTINUOUS
10
6.64641
20
198.512
11
6.64788
21
198.511
0
LINE
8
BLACK
6
CONTINUOUS
10
6.64788
20
198.511
11
6.64917
21
198.512
0
LINE
8
BLACK
6
CONTINUOUS
10
6.64917
20
198.512
11
9.87442
21
199
0
LINE
8
BLACK
6
CONTINUOUS
10
9.87442
20
199
11
9.87597
21
199
0
LINE
8
BLACK
6
CONTINUOUS
10
9.87597
20
199
11
9.87737
21
199.001
0
LINE
8
BLACK
6
CONTINUOUS
10
9.87737
20
199.001
11
13.0332
21
199.332
0
LINE
8
BLACK
6
CONTINUOUS
10
13.0332
20
199.332
11
13.0348
21
199.332
0
LINE
8
BLACK
6
CONTINUOUS
10
13.0348
20
199.332
11
13.0363
21
199.332
0
LINE
8
BLACK
6
CONTINUOUS
10
13.0363
20
199.332
11
16.1226
21
199.507
0
LINE
8
BLACK
6
CONTINUOUS
10
16.1226
20
199.507
11
16.1243
21
199.506
0
LINE
8
BLACK
6
CONTINUOUS
10
16.1243
20
199.506
11
16.1259
21
199.507
0
LINE
8
BLACK
6
CONTINUOUS
10
16.1259
20
199.507
11
19.1427
21
199.524
0
LINE
8
BLACK
6
CONTINUOUS
10
19.1427
20
199.524
11
19.1445
21
199.524
0
LINE
8
BLACK
6
CONTINUOUS
10
16.1283
20
199.377
11
13.0452
21
199.203
0
LINE
8
BLACK
6
CONTINUOUS
10
13.0452
20
199.203
11
9.8924
21
198.872
0
LINE
8
BLACK
6
CONTINUOUS
10
9.8924
20
198.872
11
6.67003
21
198.384
0
LINE
8
BLACK
6
CONTINUOUS
10
6.67003
20
198.384
11
3.37796
21
197.739
0
LINE
8
BLACK
6
CONTINUOUS
10
3.37796
20
197.739
11
0.015081
21
196.937
0
LINE
8
BLACK
6
CONTINUOUS
10
0.015081
20
196.937
11
0
21
196.939
0
LINE
8
BLACK
6
CONTINUOUS
10
0
20
196.939
11
-0.015081
21
196.937
0
LINE
8
BLACK
6
CONTINUOUS
10
-0.015081
20
196.937
11
-3.37796
21
197.739
0
LINE
8
BLACK
6
CONTINUOUS
10
-3.37796
20
197.739
11
-6.67004
21
198.384
0
LINE
8
BLACK
6
CONTINUOUS
10
-6.67004
20
198.384
11
-9.89241
21
198.872
0
LINE
8
BLACK
6
CONTINUOUS
10
-9.89241
20
198.872
11
-13.0452
21
199.203
0
LINE
8
BLACK
6
CONTINUOUS
10
-13.0452
20
199.203
11
-16.1283
21
199.377
0
LINE
8
BLACK
6
CONTINUOUS
10
-16.1283
20
199.377
11
-19.1418
21
199.394
0
LINE
8
BLACK
6
CONTINUOUS
10
-19.1418
20
199.394
11
-22.0856
21
199.255
0
LINE
8
BLACK
6
CONTINUOUS
10
-22.0856
20
199.255
11
-24.9603
21
198.958
0
LINE
8
BLACK
6
CONTINUOUS
10
-24.9603
20
198.958
11
-27.7431
21
198.547
0
LINE
8
BLACK
6
CONTINUOUS
10
-27.7431
20
198.547
11
-30.4101
21
198.062
0
LINE
8
BLACK
6
CONTINUOUS
10
-30.4101
20
198.062
11
-32.9612
21
197.503
0
LINE
8
BLACK
6
CONTINUOUS
10
-32.9612
20
197.503
11
-35.396
21
196.872
0
LINE
8
BLACK
6
CONTINUOUS
10
-35.396
20
196.872
11
-37.7148
21
196.167
0
LINE
8
BLACK
6
CONTINUOUS
10
-37.7148
20
196.167
11
-39.9175
21
195.389
0
LINE
8
BLACK
6
CONTINUOUS
10
-39.9175
20
195.389
11
-42.004
21
194.537
0
LINE
8
BLACK
6
CONTINUOUS
10
-42.004
20
194.537
11
-43.9746
21
193.612
0
LINE
8
BLACK
6
CONTINUOUS
10
-43.9746
20
193.612
11
-45.8502
21
192.611
0
LINE
8
BLACK
6
CONTINUOUS
10
-45.8502
20
192.611
11
-47.6515
21
191.53
0
LINE
8
BLACK
6
CONTINUOUS
10
-47.6515
20
191.53
11
-49.3787
21
190.37
0
LINE
8
BLACK
6
CONTINUOUS
10
-49.3787
20
190.37
11
-51.0315
21
189.129
0
LINE
8
BLACK
6
CONTINUOUS
10
-51.0315
20
189.129
11
-52.6102
21
187.81
0
LINE
8
BLACK
6
CONTINUOUS
10
-52.6102
20
187.81
11
-54.1147
21
186.41
0
LINE
8
BLACK
6
CONTINUOUS
10
-54.1147
20
186.41
11
-55.5451
21
184.931
0
LINE
8
BLACK
6
CONTINUOUS
10
-55.5451
20
184.931
11
-56.9007
21
183.373
0
LINE
8
BLACK
6
CONTINUOUS
10
-56.9007
20
183.373
11
-58.1265
21
181.708
0
LINE
8
BLACK
6
CONTINUOUS
10
-58.1265
20
181.708
11
-59.1688
21
179.91
0
LINE
8
BLACK
6
CONTINUOUS
10
-59.1688
20
179.91
11
-60.0282
21
177.975
0
LINE
8
BLACK
6
CONTINUOUS
10
-60.0282
20
177.975
11
-60.7048
21
175.905
0
LINE
8
BLACK
6
CONTINUOUS
10
-60.7048
20
175.905
11
-61.1985
21
173.699
0
LINE
8
BLACK
6
CONTINUOUS
10
-61.1985
20
173.699
11
-61.5091
21
171.356
0
LINE
8
BLACK
6
CONTINUOUS
10
-61.5091
20
171.356
11
-61.6365
21
168.878
0
LINE
8
BLACK
6
CONTINUOUS
10
-61.6365
20
168.878
11
-61.5807
21
166.264
0
LINE
8
BLACK
6
CONTINUOUS
10
-61.5807
20
166.264
11
-61.2287
21
163.657
0
LINE
8
BLACK
6
CONTINUOUS
10
-61.2287
20
163.657
11
-60.4675
21
161.192
0
LINE
8
BLACK
6
CONTINUOUS
10
-60.4675
20
161.192
11
-59.297
21
158.869
0
LINE
8
BLACK
6
CONTINUOUS
10
-59.297
20
158.869
11
-57.7165
21
156.685
0
LINE
8
BLACK
6
CONTINUOUS
10
-57.7165
20
156.685
11
-55.7253
21
154.641
0
LINE
8
BLACK
6
CONTINUOUS
10
-55.7253
20
154.641
11
-53.323
21
152.737
0
LINE
8
BLACK
6
CONTINUOUS
10
-53.323
20
152.737
11
-50.5091
21
150.973
0
LINE
8
BLACK
6
CONTINUOUS
10
-50.5091
20
150.973
11
-47.2813
21
149.349
0
LINE
8
BLACK
6
CONTINUOUS
10
-47.2813
20
149.349
11
-47.2765
21
149.344
0
LINE
8
BLACK
6
CONTINUOUS
10
-47.2765
20
149.344
11
-47.2695
21
149.341
0
LINE
8
BLACK
6
CONTINUOUS
10
-47.2695
20
149.341
11
-47.2608
21
149.325
0
LINE
8
BLACK
6
CONTINUOUS
10
-47.2608
20
149.325
11
-47.2488
21
149.311
0
LINE
8
BLACK
6
CONTINUOUS
10
-47.2488
20
149.311
11
-47.2494
21
149.304
0
LINE
8
BLACK
6
CONTINUOUS
10
-47.2494
20
149.304
11
-47.2459
21
149.298
0
LINE
8
BLACK
6
CONTINUOUS
10
-47.2459
20
149.298
11
-47.2511
21
149.28
0
LINE
8
BLACK
6
CONTINUOUS
10
-47.2511
20
149.28
11
-47.2525
21
149.262
0
LINE
8
BLACK
6
CONTINUOUS
10
-47.2525
20
149.262
11
-47.258
21
149.257
0
LINE
8
BLACK
6
CONTINUOUS
10
-47.258
20
149.257
11
-47.2601
21
149.25
0
LINE
8
BLACK
6
CONTINUOUS
10
-47.2601
20
149.25
11
-47.2762
21
149.241
0
LINE
8
BLACK
6
CONTINUOUS
10
-47.2762
20
149.241
11
-47.2901
21
149.229
0
LINE
8
BLACK
6
CONTINUOUS
10
-47.2901
20
149.229
11
-47.2974
21
149.23
0
LINE
8
BLACK
6
CONTINUOUS
10
-47.2974
20
149.23
11
-47.3038
21
149.226
0
LINE
8
BLACK
6
CONTINUOUS
10
-47.3038
20
149.226
11
-51.6623
21
148.776
0
LINE
8
BLACK
6
CONTINUOUS
10
-51.6623
20
148.776
11
-55.8026
21
148.006
0
LINE
8
BLACK
6
CONTINUOUS
10
-55.8026
20
148.006
11
-59.7275
21
146.916
0
LINE
8
BLACK
6
CONTINUOUS
10
-59.7275
20
146.916
11
-63.4369
21
145.508
0
LINE
8
BLACK
6
CONTINUOUS
10
-63.4369
20
145.508
11
-66.931
21
143.78
0
LINE
8
BLACK
6
CONTINUOUS
10
-66.931
20
143.78
11
-70.2101
21
141.733
0
LINE
8
BLACK
6
CONTINUOUS
10
-70.2101
20
141.733
11
-73.2742
21
139.367
0
LINE
8
BLACK
6
CONTINUOUS
10
-73.2742
20
139.367
11
-76.1238
21
136.681
0
LINE
8
BLACK
6
CONTINUOUS
10
-76.1238
20
136.681
11
-78.7238
21
133.778
0
LINE
8
BLACK
6
CONTINUOUS
10
-78.7238
20
133.778
11
-81.0387
21
130.763
0
LINE
8
BLACK
6
CONTINUOUS
10
-81.0387
20
130.763
11
-83.0682
21
127.636
0
LINE
8
BLACK
6
CONTINUOUS
10
-83.0682
20
127.636
11
-84.8125
21
124.397
0
LINE
8
BLACK
6
CONTINUOUS
10
-84.8125
20
124.397
11
-86.2716
21
121.046
0
LINE
8
BLACK
6
CONTINUOUS
10
-86.2716
20
121.046
11
-87.4456
21
117.582
0
LINE
8
BLACK
6
CONTINUOUS
10
-87.4456
20
117.582
11
-88.3345
21
114.005
0
LINE
8
BLACK
6
CONTINUOUS
10
-88.3345
20
114.005
11
-88.9383
21
110.317
0
LINE
8
BLACK
6
CONTINUOUS
10
-88.9383
20
110.317
11
-89.2377
21
106.586
0
LINE
8
BLACK
6
CONTINUOUS
10
-89.2377
20
106.586
11
-89.2136
21
102.882
0
LINE
8
BLACK
6
CONTINUOUS
10
-89.2136
20
102.882
11
-88.866
21
99.2071
0
LINE
8
BLACK
6
CONTINUOUS
10
-88.866
20
99.2071
11
-88.195
21
95.5593
0
LINE
8
BLACK
6
CONTINUOUS
10
-88.195
20
95.5593
11
-87.2004
21
91.9389
0
LINE
8
BLACK
6
CONTINUOUS
10
-87.2004
20
91.9389
11
-85.8822
21
88.3459
0
LINE
8
BLACK
6
CONTINUOUS
10
-85.8822
20
88.3459
11
-84.2403
21
84.7802
0
LINE
8
BLACK
6
CONTINUOUS
10
-84.2403
20
84.7802
11
-82.2754
21
81.2431
0
LINE
8
BLACK
6
CONTINUOUS
10
-82.2754
20
81.2431
11
-79.942
21
77.9953
0
LINE
8
BLACK
6
CONTINUOUS
10
-79.942
20
77.9953
11
-77.1936
21
75.2943
0
LINE
8
BLACK
6
CONTINUOUS
10
-77.1936
20
75.2943
11
-74.0289
21
73.1385
0
LINE
8
BLACK
6
CONTINUOUS
10
-74.0289
20
73.1385
11
-70.4469
21
71.5272
0
LINE
8
BLACK
6
CONTINUOUS
10
-70.4469
20
71.5272
11
-66.4469
21
70.4605
0
LINE
8
BLACK
6
CONTINUOUS
10
-66.4469
20
70.4605
11
-62.028
21
69.9388
0
LINE
8
BLACK
6
CONTINUOUS
10
-62.028
20
69.9388
11
-57.1903
21
69.9626
0
LINE
8
BLACK
6
CONTINUOUS
10
-57.1903
20
69.9626
11
-51.9307
21
70.5326
0
LINE
8
BLACK
6
CONTINUOUS
10
-51.9307
20
70.5326
11
-51.9175
21
70.5287
0
LINE
8
BLACK
6
CONTINUOUS
10
-51.9175
20
70.5287
11
-51.9038
21
70.5298
0
LINE
8
BLACK
6
CONTINUOUS
10
-51.9038
20
70.5298
11
-51.8946
21
70.522
0
LINE
8
BLACK
6
CONTINUOUS
10
-51.8946
20
70.522
11
-51.883
21
70.5186
0
LINE
8
BLACK
6
CONTINUOUS
10
-51.883
20
70.5186
11
-51.8764
21
70.5065
0
LINE
8
BLACK
6
CONTINUOUS
10
-51.8764
20
70.5065
11
-51.8659
21
70.4975
0
LINE
8
BLACK
6
CONTINUOUS
10
-51.8659
20
70.4975
11
-51.8649
21
70.4855
0
LINE
8
BLACK
6
CONTINUOUS
10
-51.8649
20
70.4855
11
-51.8591
21
70.4749
0
LINE
8
BLACK
6
CONTINUOUS
10
-51.8591
20
70.4749
11
-51.863
21
70.4617
0
LINE
8
BLACK
6
CONTINUOUS
10
-51.863
20
70.4617
11
-51.8619
21
70.4479
0
LINE
8
BLACK
6
CONTINUOUS
10
-51.8619
20
70.4479
11
-51.8697
21
70.4388
0
LINE
8
BLACK
6
CONTINUOUS
10
-51.8697
20
70.4388
11
-51.8731
21
70.4272
0
LINE
8
BLACK
6
CONTINUOUS
10
-51.8731
20
70.4272
11
-51.8852
21
70.4206
0
LINE
8
BLACK
6
CONTINUOUS
10
-51.8852
20
70.4206
11
-51.8942
21
70.4101
0
LINE
8
BLACK
6
CONTINUOUS
10
-51.8942
20
70.4101
11
-54.4682
21
69.0937
0
LINE
8
BLACK
6
CONTINUOUS
10
-54.4682
20
69.0937
11
-54.4703
21
69.0935
0
LINE
8
BLACK
6
CONTINUOUS
10
-54.4703
20
69.0935
11
-54.4718
21
69.092
0
LINE
8
BLACK
6
CONTINUOUS
10
-54.4718
20
69.092
11
-57.0914
21
67.95
0
LINE
8
BLACK
6
CONTINUOUS
10
-57.0914
20
67.95
11
-57.0936
21
67.95
0
LINE
8
BLACK
6
CONTINUOUS
10
-57.0936
20
67.95
11
-57.0952
21
67.9485
0
LINE
8
BLACK
6
CONTINUOUS
10
-57.0952
20
67.9485
11
-59.7605
21
66.981
0
LINE
8
BLACK
6
CONTINUOUS
10
-59.7605
20
66.981
11
-59.7627
21
66.9811
0
LINE
8
BLACK
6
CONTINUOUS
10
-59.7627
20
66.9811
11
-59.7644
21
66.9797
0
LINE
8
BLACK
6
CONTINUOUS
10
-59.7644
20
66.9797
11
-62.4752
21
66.1867
0
LINE
8
BLACK
6
CONTINUOUS
10
-62.4752
20
66.1867
11
-62.4775
21
66.1869
0
LINE
8
BLACK
6
CONTINUOUS
10
-62.4775
20
66.1869
11
-62.4793
21
66.1857
0
LINE
8
BLACK
6
CONTINUOUS
10
-62.4793
20
66.1857
11
-65.2357
21
65.5671
0
LINE
8
BLACK
6
CONTINUOUS
10
-65.2357
20
65.5671
11
-65.2379
21
65.5675
0
LINE
8
BLACK
6
CONTINUOUS
10
-65.2379
20
65.5675
11
-65.2398
21
65.5663
0
LINE
8
BLACK
6
CONTINUOUS
10
-65.2398
20
65.5663
11
-68.0418
21
65.1222
0
LINE
8
BLACK
6
CONTINUOUS
10
-68.0418
20
65.1222
11
-68.044
21
65.1227
0
LINE
8
BLACK
6
CONTINUOUS
10
-68.044
20
65.1227
11
-68.0459
21
65.1217
0
LINE
8
BLACK
6
CONTINUOUS
10
-68.0459
20
65.1217
11
-70.8936
21
64.852
0
LINE
8
BLACK
6
CONTINUOUS
10
-70.8936
20
64.852
11
-70.8956
21
64.8527
0
LINE
8
BLACK
6
CONTINUOUS
10
-70.8956
20
64.8527
11
-70.8975
21
64.8518
0
LINE
8
BLACK
6
CONTINUOUS
10
-70.8975
20
64.8518
11
-73.7902
21
64.7566
0
LINE
8
BLACK
6
CONTINUOUS
10
-73.7902
20
64.7566
11
-76.6329
21
64.607
0
LINE
8
BLACK
6
CONTINUOUS
10
-76.6329
20
64.607
11
-79.334
21
64.1747
0
LINE
8
BLACK
6
CONTINUOUS
10
-79.334
20
64.1747
11
-81.8964
21
63.4596
0
LINE
8
BLACK
6
CONTINUOUS
10
-81.8964
20
63.4596
11
-84.3202
21
62.4618
0
LINE
8
BLACK
6
CONTINUOUS
10
-84.3202
20
62.4618
11
-86.6059
21
61.1811
0
LINE
8
BLACK
6
CONTINUOUS
10
-86.6059
20
61.1811
11
-88.7536
21
59.6174
0
LINE
8
BLACK
6
CONTINUOUS
10
-88.7536
20
59.6174
11
-90.7636
21
57.7705
0
LINE
8
BLACK
6
CONTINUOUS
10
-90.7636
20
57.7705
11
-92.6362
21
55.6398
0
LINE
8
BLACK
6
CONTINUOUS
10
-92.6362
20
55.6398
11
-94.3288
21
53.3439
0
LINE
8
BLACK
6
CONTINUOUS
10
-94.3288
20
53.3439
11
-95.7986
21
51.0023
0
LINE
8
BLACK
6
CONTINUOUS
10
-95.7986
20
51.0023
11
-97.0453
21
48.6155
0
LINE
8
BLACK
6
CONTINUOUS
10
-97.0453
20
48.6155
11
-98.0689
21
46.1833
0
LINE
8
BLACK
6
CONTINUOUS
10
-98.0689
20
46.1833
11
-98.8697
21
43.7057
0
LINE
8
BLACK
6
CONTINUOUS
10
-98.8697
20
43.7057
11
-99.4476
21
41.1827
0
LINE
8
BLACK
6
CONTINUOUS
10
-99.4476
20
41.1827
11
-99.8027
21
38.6139
0
LINE
8
BLACK
6
CONTINUOUS
10
-99.8027
20
38.6139
11
-99.935
21
35.9984
0
LINE
8
BLACK
6
CONTINUOUS
10
-99.935
20
35.9984
11
-99.935
21
19.0055
0
LINE
8
BLACK
6
CONTINUOUS
10
-99.935
20
19.0055
11
-99.3065
21
15.3497
0
LINE
8
BLACK
6
CONTINUOUS
10
-99.3065
20
15.3497
11
-98.1771
21
12.1095
0
LINE
8
BLACK
6
CONTINUOUS
10
-98.1771
20
12.1095
11
-96.5475
21
9.28482
0
LINE
8
BLACK
6
CONTINUOUS
10
-96.5475
20
9.28482
11
-94.4174
21
6.87442
0
LINE
8
BLACK
6
CONTINUOUS
10
-94.4174
20
6.87442
11
-91.7856
21
4.87724
0
LINE
8
BLACK
6
CONTINUOUS
10
-91.7856
20
4.87724
11
-88.6511
21
3.29303
0
LINE
8
BLACK
6
CONTINUOUS
10
-88.6511
20
3.29303
11
-85.0129
21
2.12222
0
LINE
8
BLACK
6
CONTINUOUS
10
-85.0129
20
2.12222
11
-80.8695
21
1.36523
0
LINE
8
BLACK
6
CONTINUOUS
10
-80.8695
20
1.36523
11
-76.2113
21
0.87926
0
LINE
8
BLACK
6
CONTINUOUS
10
-76.2113
20
0.87926
11
-71.0307
21
0.521266
0
LINE
8
BLACK
6
CONTINUOUS
10
-71.0307
20
0.521266
11
-65.3289
21
0.291412
0
LINE
8
BLACK
6
CONTINUOUS
10
-65.3289
20
0.291412
11
-59.1059
21
0.189723
0
LINE
8
BLACK
6
CONTINUOUS
10
-59.1059
20
0.189723
11
-52.3619
21
0.216219
0
LINE
8
BLACK
6
CONTINUOUS
10
-52.3619
20
0.216219
11
-45.0968
21
0.370911
0
LINE
8
BLACK
6
CONTINUOUS
10
-45.0968
20
0.370911
11
-37.3107
21
0.653801
0
LINE
8
BLACK
6
CONTINUOUS
10
-37.3107
20
0.653801
11
-29.0032
21
1.06492
0
LINE
8
BLACK
6
CONTINUOUS
10
-29.0032
20
1.06492
11
-29.0016
21
1.06434
0
LINE
8
BLACK
6
CONTINUOUS
10
-29.0016
20
1.06434
11
-29
21
1.065
0
LINE
8
BLACK
6
CONTINUOUS
10
-29
20
1.065
11
-28.9784
21
1.05605
0
LINE
8
BLACK
6
CONTINUOUS
10
-28.9784
20
1.05605
11
-28.9564
21
1.04818
0
LINE
8
BLACK
6
CONTINUOUS
10
-28.9564
20
1.04818
11
-28.9556
21
1.04662
0
LINE
8
BLACK
6
CONTINUOUS
10
-28.9556
20
1.04662
11
-28.954
21
1.04596
0
LINE
8
BLACK
6
CONTINUOUS
10
-28.954
20
1.04596
11
-27.9731
21
0.065
0
LINE
8
BLACK
6
CONTINUOUS
10
-27.9731
20
0.065
11
27.9731
21
0.065
0
LINE
8
BLACK
6
CONTINUOUS
10
27.9731
20
0.065
11
28.954
21
1.04596
0
LINE
8
BLACK
6
CONTINUOUS
10
28.954
20
1.04596
11
28.9556
21
1.04662
0
LINE
8
BLACK
6
CONTINUOUS
10
28.9556
20
1.04662
11
28.9564
21
1.04818
0
LINE
8
BLACK
6
CONTINUOUS
10
28.9564
20
1.04818
11
28.9784
21
1.05605
0
LINE
8
BLACK
6
CONTINUOUS
10
28.9784
20
1.05605
11
29
21
1.065
0
LINE
8
BLACK
6
CONTINUOUS
10
29
20
1.065
11
29.0016
21
1.06434
0
LINE
8
BLACK
6
CONTINUOUS
10
29.0016
20
1.06434
11
29.0032
21
1.06492
0
LINE
8
BLACK
6
CONTINUOUS
10
29.0032
20
1.06492
11
37.3107
21
0.653801
0
LINE
8
BLACK
6
CONTINUOUS
10
37.3107
20
0.653801
11
45.0968
21
0.370911
0
LINE
8
BLACK
6
CONTINUOUS
10
45.0968
20
0.370911
11
52.3619
21
0.216219
0
LINE
8
BLACK
6
CONTINUOUS
10
52.3619
20
0.216219
11
59.1059
21
0.189723
0
LINE
8
BLACK
6
CONTINUOUS
10
59.1059
20
0.189723
11
65.3289
21
0.291412
0
LINE
8
BLACK
6
CONTINUOUS
10
65.3289
20
0.291412
11
71.0307
21
0.521266
0
LINE
8
BLACK
6
CONTINUOUS
10
71.0307
20
0.521266
11
76.2113
21
0.87926
0
LINE
8
BLACK
6
CONTINUOUS
10
76.2113
20
0.87926
11
80.8695
21
1.36523
0
LINE
8
BLACK
6
CONTINUOUS
10
80.8695
20
1.36523
11
85.0129
21
2.12222
0
LINE
8
BLACK
6
CONTINUOUS
10
85.0129
20
2.12222
11
88.6511
21
3.29303
0
LINE
8
BLACK
6
CONTINUOUS
10
88.6511
20
3.29303
11
91.7856
21
4.87724
0
LINE
8
BLACK
6
CONTINUOUS
10
91.7856
20
4.87724
11
94.4173
21
6.87442
0
LINE
8
BLACK
6
CONTINUOUS
10
94.4173
20
6.87442
11
96.5475
21
9.28482
0
LINE
8
BLACK
6
CONTINUOUS
10
96.5475
20
9.28482
11
98.1771
21
12.1095
0
LINE
8
BLACK
6
CONTINUOUS
10
98.1771
20
12.1095
11
99.3065
21
15.3497
0
LINE
8
BLACK
6
CONTINUOUS
10
99.3065
20
15.3497
11
99.935
21
19.0055
0
LINE
8
BLACK
6
CONTINUOUS
10
99.935
20
19.0055
11
99.935
21
35.9984
0
LINE
8
BLACK
6
CONTINUOUS
10
99.935
20
35.9984
11
99.8027
21
38.6139
0
LINE
8
BLACK
6
CONTINUOUS
10
99.8027
20
38.6139
11
99.4476
21
41.1827
0
LINE
8
BLACK
6
CONTINUOUS
10
99.4476
20
41.1827
11
98.8697
21
43.7057
0
LINE
8
BLACK
6
CONTINUOUS
10
98.8697
20
43.7057
11
98.0689
21
46.1833
0
LINE
8
BLACK
6
CONTINUOUS
10
98.0689
20
46.1833
11
97.0453
21
48.6155
0
LINE
8
BLACK
6
CONTINUOUS
10
97.0453
20
48.6155
11
95.7986
21
51.0023
0
LINE
8
BLACK
6
CONTINUOUS
10
95.7986
20
51.0023
11
94.3288
21
53.3439
0
LINE
8
BLACK
6
CONTINUOUS
10
94.3288
20
53.3439
11
92.6362
21
55.6398
0
LINE
8
BLACK
6
CONTINUOUS
10
92.6362
20
55.6398
11
90.7636
21
57.7705
0
LINE
8
BLACK
6
CONTINUOUS
10
90.7636
20
57.7705
11
88.7536
21
59.6175
0
LINE
8
BLACK
6
CONTINUOUS
10
88.7536
20
59.6175
11
86.6059
21
61.1811
0
LINE
8
BLACK
6
CONTINUOUS
10
86.6059
20
61.1811
11
84.3202
21
62.4618
0
LINE
8
BLACK
6
CONTINUOUS
10
84.3202
20
62.4618
11
81.8964
21
63.4596
0
LINE
8
BLACK
6
CONTINUOUS
10
81.8964
20
63.4596
11
79.334
21
64.1747
0
LINE
8
BLACK
6
CONTINUOUS
10
79.334
20
64.1747
11
76.6329
21
64.607
0
LINE
8
BLACK
6
CONTINUOUS
10
76.6329
20
64.607
11
73.7902
21
64.7566
0
LINE
8
BLACK
6
CONTINUOUS
10
73.7902
20
64.7566
11
70.8975
21
64.8518
0
LINE
8
BLACK
6
CONTINUOUS
10
70.8975
20
64.8518
11
70.8956
21
64.8527
0
LINE
8
BLACK
6
CONTINUOUS
10
70.8956
20
64.8527
11
70.8936
21
64.852
0
LINE
8
BLACK
6
CONTINUOUS
10
70.8936
20
64.852
11
68.0459
21
65.1217
0
LINE
8
BLACK
6
CONTINUOUS
10
68.0459
20
65.1217
11
68.044
21
65.1227
0
LINE
8
BLACK
6
CONTINUOUS
10
68.044
20
65.1227
11
68.0418
21
65.1222
0
LINE
8
BLACK
6
CONTINUOUS
10
68.0418
20
65.1222
11
65.2398
21
65.5663
0
LINE
8
BLACK
6
CONTINUOUS
10
65.2398
20
65.5663
11
65.2379
21
65.5675
0
LINE
8
BLACK
6
CONTINUOUS
10
65.2379
20
65.5675
11
65.2357
21
65.5671
0
LINE
8
BLACK
6
CONTINUOUS
10
65.2357
20
65.5671
11
62.4793
21
66.1857
0
LINE
8
BLACK
6
CONTINUOUS
10
62.4793
20
66.1857
11
62.4775
21
66.1869
0
LINE
8
BLACK
6
CONTINUOUS
10
62.4775
20
66.1869
11
62.4752
21
66.1867
0
LINE
8
BLACK
6
CONTINUOUS
10
62.4752
20
66.1867
11
59.7644
21
66.9797
0
LINE
8
BLACK
6
CONTINUOUS
10
59.7644
20
66.9797
11
59.7627
21
66.9811
0
LINE
8
BLACK
6
CONTINUOUS
10
59.7627
20
66.9811
11
59.7605
21
66.981
0
LINE
8
BLACK
6
CONTINUOUS
10
59.7605
20
66.981
11
57.0952
21
67.9485
0
LINE
8
BLACK
6
CONTINUOUS
10
57.0952
20
67.9485
11
57.0936
21
67.95
0
LINE
8
BLACK
6
CONTINUOUS
10
57.0936
20
67.95
11
57.0914
21
67.95
0
LINE
8
BLACK
6
CONTINUOUS
10
57.0914
20
67.95
11
54.4718
21
69.092
0
LINE
8
BLACK
6
CONTINUOUS
10
54.4718
20
69.092
11
54.4703
21
69.0935
0
LINE
8
BLACK
6
CONTINUOUS
10
54.4703
20
69.0935
11
54.4682
21
69.0937
0
LINE
8
BLACK
6
CONTINUOUS
10
54.4682
20
69.0937
11
51.8942
21
70.4101
0
LINE
8
BLACK
6
CONTINUOUS
10
51.8942
20
70.4101
11
51.8852
21
70.4206
0
LINE
8
BLACK
6
CONTINUOUS
10
51.8852
20
70.4206
11
51.8731
21
70.4272
0
LINE
8
BLACK
6
CONTINUOUS
10
51.8731
20
70.4272
11
51.8697
21
70.4388
0
LINE
8
BLACK
6
CONTINUOUS
10
51.8697
20
70.4388
11
51.8619
21
70.4479
0
LINE
8
BLACK
6
CONTINUOUS
10
51.8619
20
70.4479
11
51.863
21
70.4617
0
LINE
8
BLACK
6
CONTINUOUS
10
51.863
20
70.4617
11
51.8591
21
70.4749
0
LINE
8
BLACK
6
CONTINUOUS
10
51.8591
20
70.4749
11
51.8649
21
70.4855
0
LINE
8
BLACK
6
CONTINUOUS
10
51.8649
20
70.4855
11
51.8659
21
70.4975
0
LINE
8
BLACK
6
CONTINUOUS
10
51.8659
20
70.4975
11
51.8764
21
70.5065
0
LINE
8
BLACK
6
CONTINUOUS
10
51.8764
20
70.5065
11
51.883
21
70.5186
0
LINE
8
BLACK
6
CONTINUOUS
10
51.883
20
70.5186
11
51.8946
21
70.522
0
LINE
8
BLACK
6
CONTINUOUS
10
51.8946
20
70.522
11
51.9038
21
70.5298
0
LINE
8
BLACK
6
CONTINUOUS
10
51.9038
20
70.5298
11
51.9175
21
70.5287
0
LINE
8
BLACK
6
CONTINUOUS
10
51.9175
20
70.5287
11
51.9308
21
70.5326
0
LINE
8
BLACK
6
CONTINUOUS
10
51.9308
20
70.5326
11
57.1903
21
69.9626
0
LINE
8
BLACK
6
CONTINUOUS
10
57.1903
20
69.9626
11
62.028
21
69.9388
0
LINE
8
BLACK
6
CONTINUOUS
10
62.028
20
69.9388
11
66.4469
21
70.4605
0
LINE
8
BLACK
6
CONTINUOUS
10
66.4469
20
70.4605
11
70.4469
21
71.5272
0
LINE
8
BLACK
6
CONTINUOUS
10
70.4469
20
71.5272
11
74.0289
21
73.1385
0
LINE
8
BLACK
6
CONTINUOUS
10
74.0289
20
73.1385
11
77.1936
21
75.2943
0
LINE
8
BLACK
6
CONTINUOUS
10
77.1936
20
75.2943
11
79.942
21
77.9953
0
LINE
8
BLACK
6
CONTINUOUS
10
79.942
20
77.9953
11
82.2754
21
81.2431
0
LINE
8
BLACK
6
CONTINUOUS
10
82.2754
20
81.2431
11
84.2403
21
84.7802
0
LINE
8
BLACK
6
CONTINUOUS
10
84.2403
20
84.7802
11
85.8822
21
88.3459
0
LINE
8
BLACK
6
CONTINUOUS
10
85.8822
20
88.3459
11
87.2004
21
91.9389
0
LINE
8
BLACK
6
CONTINUOUS
10
87.2004
20
91.9389
11
88.195
21
95.5593
0
LINE
8
BLACK
6
CONTINUOUS
10
88.195
20
95.5593
11
88.866
21
99.2071
0
LINE
8
BLACK
6
CONTINUOUS
10
88.866
20
99.2071
11
89.2136
21
102.882
0
LINE
8
BLACK
6
CONTINUOUS
10
89.2136
20
102.882
11
89.2377
21
106.586
0
LINE
8
BLACK
6
CONTINUOUS
10
89.2377
20
106.586
11
88.9383
21
110.317
0
LINE
8
BLACK
6
CONTINUOUS
10
88.9383
20
110.317
11
88.3345
21
114.005
0
LINE
8
BLACK
6
CONTINUOUS
10
88.3345
20
114.005
11
87.4456
21
117.582
0
LINE
8
BLACK
6
CONTINUOUS
10
87.4456
20
117.582
11
86.2716
21
121.046
0
LINE
8
BLACK
6
CONTINUOUS
10
86.2716
20
121.046
11
84.8125
21
124.397
0
LINE
8
BLACK
6
CONTINUOUS
10
84.8125
20
124.397
11
83.0682
21
127.636
0
LINE
8
BLACK
6
CONTINUOUS
10
83.0682
20
127.636
11
81.0387
21
130.763
0
LINE
8
BLACK
6
CONTINUOUS
10
81.0387
20
130.763
11
78.7238
21
133.778
0
LINE
8
BLACK
6
CONTINUOUS
10
78.7238
20
133.778
11
76.1238
21
136.681
0
LINE
8
BLACK
6
CONTINUOUS
10
76.1238
20
136.681
11
73.2742
21
139.367
0
LINE
8
BLACK
6
CONTINUOUS
10
73.2742
20
139.367
11
70.2101
21
141.733
0
LINE
8
BLACK
6
CONTINUOUS
10
70.2101
20
141.733
11
66.931
21
143.78
0
LINE
8
BLACK
6
CONTINUOUS
10
66.931
20
143.78
11
63.4369
21
145.508
0
LINE
8
BLACK
6
CONTINUOUS
10
63.4369
20
145.508
11
59.7275
21
146.916
0
LINE
8
BLACK
6
CONTINUOUS
10
59.7275
20
146.916
11
55.8026
21
148.006
0
LINE
8
BLACK
6
CONTINUOUS
10
55.8026
20
148.006
11
51.6623
21
148.776
0
LINE
8
BLACK
6
CONTINUOUS
10
51.6623
20
148.776
11
47.3038
21
149.226
0
LINE
8
BLACK
6
CONTINUOUS
10
47.3038
20
149.226
11
47.2974
21
149.23
0
LINE
8
BLACK
6
CONTINUOUS
10
47.2974
20
149.23
11
47.2901
21
149.229
0
LINE
8
BLACK
6
CONTINUOUS
10
47.2901
20
149.229
11
47.2762
21
149.241
0
LINE
8
BLACK
6
CONTINUOUS
10
47.2762
20
149.241
11
47.2601
21
149.25
0
LINE
8
BLACK
6
CONTINUOUS
10
47.2601
20
149.25
11
47.258
21
149.257
0
LINE
8
BLACK
6
CONTINUOUS
10
47.258
20
149.257
11
47.2525
21
149.262
0
LINE
8
BLACK
6
CONTINUOUS
10
47.2525
20
149.262
11
47.2511
21
149.28
0
LINE
8
BLACK
6
CONTINUOUS
10
47.2511
20
149.28
11
47.2459
21
149.298
0
LINE
8
BLACK
6
CONTINUOUS
10
47.2459
20
149.298
11
47.2494
21
149.304
0
LINE
8
BLACK
6
CONTINUOUS
10
47.2494
20
149.304
11
47.2488
21
149.311
0
LINE
8
BLACK
6
CONTINUOUS
10
47.2488
20
149.311
11
47.2608
21
149.325
0
LINE
8
BLACK
6
CONTINUOUS
10
47.2608
20
149.325
11
47.2695
21
149.341
0
LINE
8
BLACK
6
CONTINUOUS
10
47.2695
20
149.341
11
47.2765
21
149.344
0
LINE
8
BLACK
6
CONTINUOUS
10
47.2765
20
149.344
11
47.2813
21
149.349
0
LINE
8
BLACK
6
CONTINUOUS
10
47.2813
20
149.349
11
50.5091
21
150.973
0
LINE
8
BLACK
6
CONTINUOUS
10
50.5091
20
150.973
11
53.323
21
152.737
0
LINE
8
BLACK
6
CONTINUOUS
10
53.323
20
152.737
11
55.7253
21
154.641
0
LINE
8
BLACK
6
CONTINUOUS
10
55.7253
20
154.641
11
57.7165
21
156.685
0
LINE
8
BLACK
6
CONTINUOUS
10
57.7165
20
156.685
11
59.297
21
158.869
0
LINE
8
BLACK
6
CONTINUOUS
10
59.297
20
158.869
11
60.4675
21
161.192
0
LINE
8
BLACK
6
CONTINUOUS
10
60.4675
20
161.192
11
61.2286
21
163.657
0
LINE
8
BLACK
6
CONTINUOUS
10
61.2286
20
163.657
11
61.5807
21
166.264
0
LINE
8
BLACK
6
CONTINUOUS
10
61.5807
20
166.264
11
61.6365
21
168.878
0
LINE
8
BLACK
6
CONTINUOUS
10
61.6365
20
168.878
11
61.5091
21
171.356
0
LINE
8
BLACK
6
CONTINUOUS
10
61.5091
20
171.356
11
61.1985
21
173.699
0
LINE
8
BLACK
6
CONTINUOUS
10
61.1985
20
173.699
11
60.7048
21
175.905
0
LINE
8
BLACK
6
CONTINUOUS
10
60.7048
20
175.905
11
60.0282
21
177.975
0
LINE
8
BLACK
6
CONTINUOUS
10
60.0282
20
177.975
11
59.1688
21
179.91
0
LINE
8
BLACK
6
CONTINUOUS
10
59.1688
20
179.91
11
58.1265
21
181.708
0
LINE
8
BLACK
6
CONTINUOUS
10
58.1265
20
181.708
11
56.9007
21
183.373
0
LINE
8
BLACK
6
CONTINUOUS
10
56.9007
20
183.373
11
55.5451
21
184.931
0
LINE
8
BLACK
6
CONTINUOUS
10
55.5451
20
184.931
11
54.1147
21
186.41
0
LINE
8
BLACK
6
CONTINUOUS
10
54.1147
20
186.41
11
52.6102
21
187.81
0
LINE
8
BLACK
6
CONTINUOUS
10
52.6102
20
187.81
11
51.0315
21
189.129
0
LINE
8
BLACK
6
CONTINUOUS
10
51.0315
20
189.129
11
49.3787
21
190.37
0
LINE
8
BLACK
6
CONTINUOUS
10
49.3787
20
190.37
11
47.6516
21
191.53
0
LINE
8
BLACK
6
CONTINUOUS
10
47.6516
20
191.53
11
45.8502
21
192.611
0
LINE
8
BLACK
6
CONTINUOUS
10
45.8502
20
192.611
11
43.9746
21
193.612
0
LINE
8
BLACK
6
CONTINUOUS
10
43.9746
20
193.612
11
42.004
21
194.537
0
LINE
8
BLACK
6
CONTINUOUS
10
42.004
20
194.537
11
39.9174
21
195.389
0
LINE
8
BLACK
6
CONTINUOUS
10
39.9174
20
195.389
11
37.7148
21
196.167
0
LINE
8
BLACK
6
CONTINUOUS
10
37.7148
20
196.167
11
35.396
21
196.872
0
LINE
8
BLACK
6
CONTINUOUS
10
35.396
20
196.872
11
32.9612
21
197.503
0
LINE
8
BLACK
6
CONTINUOUS
10
32.9612
20
197.503
11
30.4101
21
198.062
0
LINE
8
BLACK
6
CONTINUOUS
10
30.4101
20
198.062
11
27.7431
21
198.547
0
LINE
8
BLACK
6
CONTINUOUS
10
27.7431
20
198.547
11
24.9603
21
198.958
0
LINE
8
BLACK
6
CONTINUOUS
10
24.9603
20
198.958
11
22.0856
21
199.255
0
LINE
8
BLACK
6
CONTINUOUS
10
22.0856
20
199.255
11
19.1418
21
199.394
0
LINE
8
BLACK
6
CONTINUOUS
10
19.1418
20
199.394
11
16.1283
21
199.377
  0
ENDSEC
  0
EOF
